<svg xmlns="http://www.w3.org/2000/svg" xmlns:xlink="http://www.w3.org/1999/xlink" contentStyleType="text/css" height="775px" preserveAspectRatio="none" style="width:3605px;height:775px;background:#FFFFFF;" version="1.1" viewBox="0 0 3605 775" width="3605px" zoomAndPan="magnify"><defs/><g><!--cluster com--><g id="cluster_com"><path d="M8.5,6 L42.0049,6 A3.75,3.75 0 0 1 44.5049,8.5 L51.5049,28.2969 L3595.5,28.2969 A2.5,2.5 0 0 1 3598,30.7969 L3598,765.69 A2.5,2.5 0 0 1 3595.5,768.19 L8.5,768.19 A2.5,2.5 0 0 1 6,765.69 L6,8.5 A2.5,2.5 0 0 1 8.5,6 " fill="none" style="stroke:#000000;stroke-width:1.5;"/><line style="stroke:#000000;stroke-width:1.5;" x1="6" x2="51.5049" y1="28.2969" y2="28.2969"/><text fill="#000000" font-family="sans-serif" font-size="14" font-weight="bold" lengthAdjust="spacing" textLength="32.5049" x="10" y="20.9951">com</text></g><!--cluster sognisport--><g id="cluster_sognisport"><path d="M32.5,49 L117.8076,49 A3.75,3.75 0 0 1 120.3076,51.5 L127.3076,71.2969 L3571.5,71.2969 A2.5,2.5 0 0 1 3574,73.7969 L3574,741.69 A2.5,2.5 0 0 1 3571.5,744.19 L32.5,744.19 A2.5,2.5 0 0 1 30,741.69 L30,51.5 A2.5,2.5 0 0 1 32.5,49 " fill="none" style="stroke:#000000;stroke-width:1.5;"/><line style="stroke:#000000;stroke-width:1.5;" x1="30" x2="127.3076" y1="71.2969" y2="71.2969"/><text fill="#000000" font-family="sans-serif" font-size="14" font-weight="bold" lengthAdjust="spacing" textLength="84.3076" x="34" y="63.9951">sognisport</text></g><!--cluster application--><g id="cluster_application"><path d="M56.5,92 L145.4102,92 A3.75,3.75 0 0 1 147.9102,94.5 L154.9102,114.2969 L2235.5,114.2969 A2.5,2.5 0 0 1 2238,116.7969 L2238,609.69 A2.5,2.5 0 0 1 2235.5,612.19 L56.5,612.19 A2.5,2.5 0 0 1 54,609.69 L54,94.5 A2.5,2.5 0 0 1 56.5,92 " fill="none" style="stroke:#000000;stroke-width:1.5;"/><line style="stroke:#000000;stroke-width:1.5;" x1="54" x2="154.9102" y1="114.2969" y2="114.2969"/><text fill="#000000" font-family="sans-serif" font-size="14" font-weight="bold" lengthAdjust="spacing" textLength="87.9102" x="58" y="106.9951">application</text></g><!--cluster controller--><g id="cluster_controller"><path d="M143.5,135 L221.5957,135 A3.75,3.75 0 0 1 224.0957,137.5 L231.0957,157.2969 L1033.5,157.2969 A2.5,2.5 0 0 1 1036,159.7969 L1036,247.8 A2.5,2.5 0 0 1 1033.5,250.3 L143.5,250.3 A2.5,2.5 0 0 1 141,247.8 L141,137.5 A2.5,2.5 0 0 1 143.5,135 " fill="none" style="stroke:#000000;stroke-width:1.5;"/><line style="stroke:#000000;stroke-width:1.5;" x1="141" x2="231.0957" y1="157.2969" y2="157.2969"/><text fill="#000000" font-family="sans-serif" font-size="14" font-weight="bold" lengthAdjust="spacing" textLength="77.0957" x="145" y="149.9951">controller</text></g><!--cluster dto--><g id="cluster_dto"><path d="M948.5,456.6 L975.832,456.6 A3.75,3.75 0 0 1 978.332,459.1 L985.332,478.8969 L2211.5,478.8969 A2.5,2.5 0 0 1 2214,481.3969 L2214,585.69 A2.5,2.5 0 0 1 2211.5,588.19 L948.5,588.19 A2.5,2.5 0 0 1 946,585.69 L946,459.1 A2.5,2.5 0 0 1 948.5,456.6 " fill="none" style="stroke:#000000;stroke-width:1.5;"/><line style="stroke:#000000;stroke-width:1.5;" x1="946" x2="985.332" y1="478.8969" y2="478.8969"/><text fill="#000000" font-family="sans-serif" font-size="14" font-weight="bold" lengthAdjust="spacing" textLength="26.332" x="950" y="471.5951">dto</text></g><!--cluster service--><g id="cluster_service"><path d="M80.5,317.3 L137.9512,317.3 A3.75,3.75 0 0 1 140.4512,319.8 L147.4512,339.5969 L919.5,339.5969 A2.5,2.5 0 0 1 922,342.0969 L922,585.69 A2.5,2.5 0 0 1 919.5,588.19 L80.5,588.19 A2.5,2.5 0 0 1 78,585.69 L78,319.8 A2.5,2.5 0 0 1 80.5,317.3 " fill="none" style="stroke:#000000;stroke-width:1.5;"/><line style="stroke:#000000;stroke-width:1.5;" x1="78" x2="147.4512" y1="339.5969" y2="339.5969"/><text fill="#000000" font-family="sans-serif" font-size="14" font-weight="bold" lengthAdjust="spacing" textLength="56.4512" x="82" y="332.2951">service</text></g><!--cluster domain--><g id="cluster_domain"><path d="M2264.5,274.3 L2323.9404,274.3 A3.75,3.75 0 0 1 2326.4404,276.8 L2333.4404,296.5969 L3547.5,296.5969 A2.5,2.5 0 0 1 3550,299.0969 L3550,717.69 A2.5,2.5 0 0 1 3547.5,720.19 L2264.5,720.19 A2.5,2.5 0 0 1 2262,717.69 L2262,276.8 A2.5,2.5 0 0 1 2264.5,274.3 " fill="none" style="stroke:#000000;stroke-width:1.5;"/><line style="stroke:#000000;stroke-width:1.5;" x1="2262" x2="2333.4404" y1="296.5969" y2="296.5969"/><text fill="#000000" font-family="sans-serif" font-size="14" font-weight="bold" lengthAdjust="spacing" textLength="58.4404" x="2266" y="289.2951">domain</text></g><!--cluster model--><g id="cluster_model"><path d="M2594.5,456.6 L2644.0215,456.6 A3.75,3.75 0 0 1 2646.5215,459.1 L2653.5215,478.8969 L3523.5,478.8969 A2.5,2.5 0 0 1 3526,481.3969 L3526,693.69 A2.5,2.5 0 0 1 3523.5,696.19 L2594.5,696.19 A2.5,2.5 0 0 1 2592,693.69 L2592,459.1 A2.5,2.5 0 0 1 2594.5,456.6 " fill="none" style="stroke:#000000;stroke-width:1.5;"/><line style="stroke:#000000;stroke-width:1.5;" x1="2592" x2="2653.5215" y1="478.8969" y2="478.8969"/><text fill="#000000" font-family="sans-serif" font-size="14" font-weight="bold" lengthAdjust="spacing" textLength="48.5215" x="2596" y="471.5951">model</text></g><!--cluster repository--><g id="cluster_repository"><path d="M2288.5,472.89 L2371.0117,472.89 A3.75,3.75 0 0 1 2373.5117,475.39 L2380.5117,495.1869 L2565.5,495.1869 A2.5,2.5 0 0 1 2568,497.6869 L2568,569.39 A2.5,2.5 0 0 1 2565.5,571.89 L2288.5,571.89 A2.5,2.5 0 0 1 2286,569.39 L2286,475.39 A2.5,2.5 0 0 1 2288.5,472.89 " fill="none" style="stroke:#000000;stroke-width:1.5;"/><line style="stroke:#000000;stroke-width:1.5;" x1="2286" x2="2380.5117" y1="495.1869" y2="495.1869"/><text fill="#000000" font-family="sans-serif" font-size="14" font-weight="bold" lengthAdjust="spacing" textLength="81.5117" x="2290" y="487.8851">repository</text></g><!--cluster service--><g id="cluster_service"><path d="M2473.5,317.3 L2530.9512,317.3 A3.75,3.75 0 0 1 2533.4512,319.8 L2540.4512,339.5969 L3274.5,339.5969 A2.5,2.5 0 0 1 3277,342.0969 L3277,430.1 A2.5,2.5 0 0 1 3274.5,432.6 L2473.5,432.6 A2.5,2.5 0 0 1 2471,430.1 L2471,319.8 A2.5,2.5 0 0 1 2473.5,317.3 " fill="none" style="stroke:#000000;stroke-width:1.5;"/><line style="stroke:#000000;stroke-width:1.5;" x1="2471" x2="2540.4512" y1="339.5969" y2="339.5969"/><text fill="#000000" font-family="sans-serif" font-size="14" font-weight="bold" lengthAdjust="spacing" textLength="56.4512" x="2475" y="332.2951">service</text></g><!--class CurrencyConversionController--><g id="elem_CurrencyConversionController"><rect codeLine="14" fill="#F9E79F" height="64.2969" id="CurrencyConversionController" rx="2.5" ry="2.5" style="stroke:#000000;stroke-width:1.0;" width="685.2236" x="157.39" y="170"/><ellipse cx="390.1058" cy="186" fill="#ADD1B2" rx="11" ry="11" style="stroke:#181818;stroke-width:1.0;"/><path d="M393.0746,191.6406 Q392.4964,191.9375 391.8558,192.0781 Q391.2152,192.2344 390.5121,192.2344 Q388.0121,192.2344 386.6839,190.5938 Q385.3714,188.9375 385.3714,185.8125 Q385.3714,182.6875 386.6839,181.0313 Q388.0121,179.375 390.5121,179.375 Q391.2152,179.375 391.8558,179.5313 Q392.5121,179.6875 393.0746,179.9844 L393.0746,182.7031 Q392.4496,182.125 391.8558,181.8594 Q391.2621,181.5781 390.6371,181.5781 Q389.2933,181.5781 388.6058,182.6563 Q387.9183,183.7188 387.9183,185.8125 Q387.9183,187.9063 388.6058,188.9844 Q389.2933,190.0469 390.6371,190.0469 Q391.2621,190.0469 391.8558,189.7813 Q392.4496,189.5 393.0746,188.9219 L393.0746,191.6406 Z " fill="#000000"/><text fill="#000000" font-family="sans-serif" font-size="14" lengthAdjust="spacing" textLength="211.292" x="410.6058" y="190.8467">CurrencyConversionController</text><line style="stroke:#000000;stroke-width:1.0;" x1="158.39" x2="841.6136" y1="202" y2="202"/><line style="stroke:#000000;stroke-width:1.0;" x1="158.39" x2="841.6136" y1="210" y2="210"/><ellipse cx="168.39" cy="223.6484" fill="#84BE84" rx="3" ry="3" style="stroke:#038048;stroke-width:1.0;"/><text fill="#000000" font-family="sans-serif" font-size="14" lengthAdjust="spacing" textLength="659.2236" x="177.39" y="226.9951">convertCurrency(Currency source, Currency target, double amount): CurrencyConversionDTO</text></g><!--class HomeController--><g id="elem_HomeController"><rect codeLine="17" fill="#F9E79F" height="64.2969" id="HomeController" rx="2.5" ry="2.5" style="stroke:#000000;stroke-width:1.0;" width="142.5166" x="877.74" y="170"/><ellipse cx="892.74" cy="186" fill="#ADD1B2" rx="11" ry="11" style="stroke:#181818;stroke-width:1.0;"/><path d="M895.7088,191.6406 Q895.1306,191.9375 894.49,192.0781 Q893.8494,192.2344 893.1463,192.2344 Q890.6463,192.2344 889.3181,190.5938 Q888.0056,188.9375 888.0056,185.8125 Q888.0056,182.6875 889.3181,181.0313 Q890.6463,179.375 893.1463,179.375 Q893.8494,179.375 894.49,179.5313 Q895.1463,179.6875 895.7088,179.9844 L895.7088,182.7031 Q895.0838,182.125 894.49,181.8594 Q893.8963,181.5781 893.2713,181.5781 Q891.9275,181.5781 891.24,182.6563 Q890.5525,183.7188 890.5525,185.8125 Q890.5525,187.9063 891.24,188.9844 Q891.9275,190.0469 893.2713,190.0469 Q893.8963,190.0469 894.49,189.7813 Q895.0838,189.5 895.7088,188.9219 L895.7088,191.6406 Z " fill="#000000"/><text fill="#000000" font-family="sans-serif" font-size="14" lengthAdjust="spacing" textLength="110.5166" x="906.74" y="190.8467">HomeController</text><line style="stroke:#000000;stroke-width:1.0;" x1="878.74" x2="1019.2566" y1="202" y2="202"/><line style="stroke:#000000;stroke-width:1.0;" x1="878.74" x2="1019.2566" y1="210" y2="210"/><ellipse cx="888.74" cy="223.6484" fill="#84BE84" rx="3" ry="3" style="stroke:#038048;stroke-width:1.0;"/><text fill="#000000" font-family="sans-serif" font-size="14" lengthAdjust="spacing" textLength="101.5615" x="897.74" y="226.9951">home(): String</text></g><!--class CurrencyConversionDTO--><g id="elem_CurrencyConversionDTO"><rect codeLine="23" fill="#F9E79F" height="80.5938" id="CurrencyConversionDTO" rx="2.5" ry="2.5" style="stroke:#000000;stroke-width:1.0;" width="1235.0654" x="962.47" y="491.6"/><ellipse cx="1489.5174" cy="507.6" fill="#ADD1B2" rx="11" ry="11" style="stroke:#181818;stroke-width:1.0;"/><path d="M1492.4861,513.2406 Q1491.908,513.5375 1491.2674,513.6781 Q1490.6267,513.8344 1489.9236,513.8344 Q1487.4236,513.8344 1486.0955,512.1938 Q1484.783,510.5375 1484.783,507.4125 Q1484.783,504.2875 1486.0955,502.6313 Q1487.4236,500.975 1489.9236,500.975 Q1490.6267,500.975 1491.2674,501.1313 Q1491.9236,501.2875 1492.4861,501.5844 L1492.4861,504.3031 Q1491.8611,503.725 1491.2674,503.4594 Q1490.6736,503.1781 1490.0486,503.1781 Q1488.7049,503.1781 1488.0174,504.2563 Q1487.3299,505.3188 1487.3299,507.4125 Q1487.3299,509.5063 1488.0174,510.5844 Q1488.7049,511.6469 1490.0486,511.6469 Q1490.6736,511.6469 1491.2674,511.3813 Q1491.8611,511.1 1492.4861,510.5219 L1492.4861,513.2406 Z " fill="#000000"/><text fill="#000000" font-family="sans-serif" font-size="14" lengthAdjust="spacing" textLength="172.4707" x="1510.0174" y="512.4467">CurrencyConversionDTO</text><line style="stroke:#000000;stroke-width:1.0;" x1="963.47" x2="2196.5354" y1="523.6" y2="523.6"/><line style="stroke:#000000;stroke-width:1.0;" x1="963.47" x2="2196.5354" y1="531.6" y2="531.6"/><ellipse cx="973.47" cy="545.2484" fill="#84BE84" rx="3" ry="3" style="stroke:#038048;stroke-width:1.0;"/><text fill="#000000" font-family="sans-serif" font-size="14" lengthAdjust="spacing" textLength="183.3945" x="982.47" y="548.5951">CurrencyConversionDTO()</text><ellipse cx="973.47" cy="561.5453" fill="#84BE84" rx="3" ry="3" style="stroke:#038048;stroke-width:1.0;"/><text fill="#000000" font-family="sans-serif" font-size="14" lengthAdjust="spacing" textLength="1209.0654" x="982.47" y="564.892">CurrencyConversionDTO(Currency sourceCurrency, Currency targetCurrency, double conversionRate, LocalDateTime queryDate, double amount, double convertedAmount)</text></g><!--class CurrencyConversionService--><g id="elem_CurrencyConversionService"><rect codeLine="30" fill="#F9E79F" height="64.2969" id="CurrencyConversionService" rx="2.5" ry="2.5" style="stroke:#000000;stroke-width:1.0;" width="812.4814" x="93.76" y="352.3"/><ellipse cx="398.8205" cy="368.3" fill="#ADD1B2" rx="11" ry="11" style="stroke:#181818;stroke-width:1.0;"/><path d="M401.7893,373.9406 Q401.2112,374.2375 400.5705,374.3781 Q399.9299,374.5344 399.2268,374.5344 Q396.7268,374.5344 395.3987,372.8938 Q394.0862,371.2375 394.0862,368.1125 Q394.0862,364.9875 395.3987,363.3313 Q396.7268,361.675 399.2268,361.675 Q399.9299,361.675 400.5705,361.8313 Q401.2268,361.9875 401.7893,362.2844 L401.7893,365.0031 Q401.1643,364.425 400.5705,364.1594 Q399.9768,363.8781 399.3518,363.8781 Q398.008,363.8781 397.3205,364.9563 Q396.633,366.0188 396.633,368.1125 Q396.633,370.2063 397.3205,371.2844 Q398.008,372.3469 399.3518,372.3469 Q399.9768,372.3469 400.5705,372.0813 Q401.1643,371.8 401.7893,371.2219 L401.7893,373.9406 Z " fill="#000000"/><text fill="#000000" font-family="sans-serif" font-size="14" lengthAdjust="spacing" textLength="193.8604" x="419.3205" y="373.1467">CurrencyConversionService</text><line style="stroke:#000000;stroke-width:1.0;" x1="94.76" x2="905.2414" y1="384.3" y2="384.3"/><line style="stroke:#000000;stroke-width:1.0;" x1="94.76" x2="905.2414" y1="392.3" y2="392.3"/><ellipse cx="104.76" cy="405.9484" fill="#84BE84" rx="3" ry="3" style="stroke:#038048;stroke-width:1.0;"/><text fill="#000000" font-family="sans-serif" font-size="14" lengthAdjust="spacing" textLength="786.4814" x="113.76" y="409.2951">convertCurrency(Currency sourceCurrency, Currency targetCurrency, double amount): CurrencyConversionDTO</text></g><!--class ApiResponse--><g id="elem_ApiResponse"><rect codeLine="33" fill="#F9E79F" height="80.5938" id="ApiResponse" rx="2.5" ry="2.5" style="stroke:#000000;stroke-width:1.0;" width="291.501" x="354.25" y="491.6"/><ellipse cx="450.6401" cy="507.6" fill="#ADD1B2" rx="11" ry="11" style="stroke:#181818;stroke-width:1.0;"/><path d="M453.6089,513.2406 Q453.0308,513.5375 452.3901,513.6781 Q451.7495,513.8344 451.0464,513.8344 Q448.5464,513.8344 447.2183,512.1938 Q445.9058,510.5375 445.9058,507.4125 Q445.9058,504.2875 447.2183,502.6313 Q448.5464,500.975 451.0464,500.975 Q451.7495,500.975 452.3901,501.1313 Q453.0464,501.2875 453.6089,501.5844 L453.6089,504.3031 Q452.9839,503.725 452.3901,503.4594 Q451.7964,503.1781 451.1714,503.1781 Q449.8276,503.1781 449.1401,504.2563 Q448.4526,505.3188 448.4526,507.4125 Q448.4526,509.5063 449.1401,510.5844 Q449.8276,511.6469 451.1714,511.6469 Q451.7964,511.6469 452.3901,511.3813 Q452.9839,511.1 453.6089,510.5219 L453.6089,513.2406 Z " fill="#000000"/><text fill="#000000" font-family="sans-serif" font-size="14" lengthAdjust="spacing" textLength="90.2207" x="471.1401" y="512.4467">ApiResponse</text><line style="stroke:#000000;stroke-width:1.0;" x1="355.25" x2="644.751" y1="523.6" y2="523.6"/><line style="stroke:#000000;stroke-width:1.0;" x1="355.25" x2="644.751" y1="531.6" y2="531.6"/><ellipse cx="365.25" cy="545.2484" fill="#84BE84" rx="3" ry="3" style="stroke:#038048;stroke-width:1.0;"/><text fill="#000000" font-family="sans-serif" font-size="14" lengthAdjust="spacing" textLength="236.0791" x="374.25" y="548.5951">getRates(): Map&lt;String, Double&gt;</text><ellipse cx="365.25" cy="561.5453" fill="#84BE84" rx="3" ry="3" style="stroke:#038048;stroke-width:1.0;"/><text fill="#000000" font-family="sans-serif" font-size="14" lengthAdjust="spacing" textLength="265.501" x="374.25" y="564.892">setRates(Map&lt;String, Double&gt; rates)</text></g><!--class Currency--><g id="elem_Currency"><rect codeLine="40" fill="#F9E79F" height="48" id="Currency" rx="2.5" ry="2.5" style="stroke:#000000;stroke-width:1.0;" width="95.6289" x="2809.19" y="632.19"/><ellipse cx="2824.19" cy="648.19" fill="#ADD1B2" rx="11" ry="11" style="stroke:#181818;stroke-width:1.0;"/><path d="M2827.1588,653.8306 Q2826.5806,654.1275 2825.94,654.2681 Q2825.2994,654.4244 2824.5963,654.4244 Q2822.0963,654.4244 2820.7681,652.7838 Q2819.4556,651.1275 2819.4556,648.0025 Q2819.4556,644.8775 2820.7681,643.2213 Q2822.0963,641.565 2824.5963,641.565 Q2825.2994,641.565 2825.94,641.7213 Q2826.5963,641.8775 2827.1588,642.1744 L2827.1588,644.8931 Q2826.5338,644.315 2825.94,644.0494 Q2825.3463,643.7681 2824.7213,643.7681 Q2823.3775,643.7681 2822.69,644.8463 Q2822.0025,645.9088 2822.0025,648.0025 Q2822.0025,650.0963 2822.69,651.1744 Q2823.3775,652.2369 2824.7213,652.2369 Q2825.3463,652.2369 2825.94,651.9713 Q2826.5338,651.69 2827.1588,651.1119 L2827.1588,653.8306 Z " fill="#000000"/><text fill="#000000" font-family="sans-serif" font-size="14" lengthAdjust="spacing" textLength="63.6289" x="2838.19" y="653.0367">Currency</text><line style="stroke:#000000;stroke-width:1.0;" x1="2810.19" x2="2903.8189" y1="664.19" y2="664.19"/><line style="stroke:#000000;stroke-width:1.0;" x1="2810.19" x2="2903.8189" y1="672.19" y2="672.19"/></g><!--class CurrencyConversion--><g id="elem_CurrencyConversion"><rect codeLine="41" fill="#F9E79F" height="80.5938" id="CurrencyConversion" rx="2.5" ry="2.5" style="stroke:#000000;stroke-width:1.0;" width="902.7705" x="2607.61" y="491.6"/><ellipse cx="2983.6857" cy="507.6" fill="#ADD1B2" rx="11" ry="11" style="stroke:#181818;stroke-width:1.0;"/><path d="M2986.6544,513.2406 Q2986.0763,513.5375 2985.4357,513.6781 Q2984.7951,513.8344 2984.0919,513.8344 Q2981.5919,513.8344 2980.2638,512.1938 Q2978.9513,510.5375 2978.9513,507.4125 Q2978.9513,504.2875 2980.2638,502.6313 Q2981.5919,500.975 2984.0919,500.975 Q2984.7951,500.975 2985.4357,501.1313 Q2986.0919,501.2875 2986.6544,501.5844 L2986.6544,504.3031 Q2986.0294,503.725 2985.4357,503.4594 Q2984.8419,503.1781 2984.2169,503.1781 Q2982.8732,503.1781 2982.1857,504.2563 Q2981.4982,505.3188 2981.4982,507.4125 Q2981.4982,509.5063 2982.1857,510.5844 Q2982.8732,511.6469 2984.2169,511.6469 Q2984.8419,511.6469 2985.4357,511.3813 Q2986.0294,511.1 2986.6544,510.5219 L2986.6544,513.2406 Z " fill="#000000"/><text fill="#000000" font-family="sans-serif" font-size="14" lengthAdjust="spacing" textLength="142.1191" x="3004.1857" y="512.4467">CurrencyConversion</text><line style="stroke:#000000;stroke-width:1.0;" x1="2608.61" x2="3509.3805" y1="523.6" y2="523.6"/><line style="stroke:#000000;stroke-width:1.0;" x1="2608.61" x2="3509.3805" y1="531.6" y2="531.6"/><ellipse cx="2618.61" cy="545.2484" fill="#84BE84" rx="3" ry="3" style="stroke:#038048;stroke-width:1.0;"/><text fill="#000000" font-family="sans-serif" font-size="14" lengthAdjust="spacing" textLength="153.043" x="2627.61" y="548.5951">CurrencyConversion()</text><ellipse cx="2618.61" cy="561.5453" fill="#84BE84" rx="3" ry="3" style="stroke:#038048;stroke-width:1.0;"/><text fill="#000000" font-family="sans-serif" font-size="14" lengthAdjust="spacing" textLength="876.7705" x="2627.61" y="564.892">CurrencyConversion(Currency sourceCurrency, Currency targetCurrency, double conversionRate, LocalDateTime queryDate)</text></g><!--class CurrencyConversionRepository--><g id="elem_CurrencyConversionRepository"><rect codeLine="48" fill="#F9E79F" height="48" id="CurrencyConversionRepository" rx="2.5" ry="2.5" style="stroke:#000000;stroke-width:1.0;" width="249.1914" x="2302.4" y="507.89"/><ellipse cx="2317.4" cy="523.89" fill="#B4A7E5" rx="11" ry="11" style="stroke:#181818;stroke-width:1.0;"/><path d="M2313.3219,519.6556 L2313.3219,517.4994 L2320.7125,517.4994 L2320.7125,519.6556 L2318.2438,519.6556 L2318.2438,527.7338 L2320.7125,527.7338 L2320.7125,529.89 L2313.3219,529.89 L2313.3219,527.7338 L2315.7906,527.7338 L2315.7906,519.6556 L2313.3219,519.6556 Z " fill="#000000"/><text fill="#000000" font-family="sans-serif" font-size="14" font-style="italic" lengthAdjust="spacing" textLength="217.1914" x="2331.4" y="528.7367">CurrencyConversionRepository</text><line style="stroke:#000000;stroke-width:1.0;" x1="2303.4" x2="2550.5914" y1="539.89" y2="539.89"/><line style="stroke:#000000;stroke-width:1.0;" x1="2303.4" x2="2550.5914" y1="547.89" y2="547.89"/></g><!--class CurrencyConversionDomainService--><g id="elem_CurrencyConversionDomainService"><rect codeLine="52" fill="#F9E79F" height="64.2969" id="CurrencyConversionDomainService" rx="2.5" ry="2.5" style="stroke:#000000;stroke-width:1.0;" width="774.2754" x="2486.86" y="352.3"/><ellipse cx="2745.6549" cy="368.3" fill="#ADD1B2" rx="11" ry="11" style="stroke:#181818;stroke-width:1.0;"/><path d="M2748.6237,373.9406 Q2748.0455,374.2375 2747.4049,374.3781 Q2746.7643,374.5344 2746.0612,374.5344 Q2743.5612,374.5344 2742.233,372.8938 Q2740.9205,371.2375 2740.9205,368.1125 Q2740.9205,364.9875 2742.233,363.3313 Q2743.5612,361.675 2746.0612,361.675 Q2746.7643,361.675 2747.4049,361.8313 Q2748.0612,361.9875 2748.6237,362.2844 L2748.6237,365.0031 Q2747.9987,364.425 2747.4049,364.1594 Q2746.8112,363.8781 2746.1862,363.8781 Q2744.8424,363.8781 2744.1549,364.9563 Q2743.4674,366.0188 2743.4674,368.1125 Q2743.4674,370.2063 2744.1549,371.2844 Q2744.8424,372.3469 2746.1862,372.3469 Q2746.8112,372.3469 2747.4049,372.0813 Q2747.9987,371.8 2748.6237,371.2219 L2748.6237,373.9406 Z " fill="#000000"/><text fill="#000000" font-family="sans-serif" font-size="14" lengthAdjust="spacing" textLength="248.1855" x="2766.1549" y="373.1467">CurrencyConversionDomainService</text><line style="stroke:#000000;stroke-width:1.0;" x1="2487.86" x2="3260.1354" y1="384.3" y2="384.3"/><line style="stroke:#000000;stroke-width:1.0;" x1="2487.86" x2="3260.1354" y1="392.3" y2="392.3"/><ellipse cx="2497.86" cy="405.9484" fill="#84BE84" rx="3" ry="3" style="stroke:#038048;stroke-width:1.0;"/><text fill="#000000" font-family="sans-serif" font-size="14" lengthAdjust="spacing" textLength="748.2754" x="2506.86" y="409.2951">performConversion(Currency sourceCurrency, Currency targetCurrency, double rate): CurrencyConversion</text></g><!--link CurrencyConversionController to CurrencyConversionService--><g id="link_CurrencyConversionController_CurrencyConversionService"><path codeLine="58" d="M500,234.56 C500,267.55 500,313.13 500,346.1 " fill="none" id="CurrencyConversionController-to-CurrencyConversionService" style="stroke:#000000;stroke-width:1.0;"/><polygon fill="#000000" points="500,352.1,504,343.1,500,347.1,496,343.1,500,352.1" style="stroke:#000000;stroke-width:1.0;"/></g><!--link CurrencyConversionService to CurrencyConversionDTO--><g id="link_CurrencyConversionService_CurrencyConversionDTO"><path codeLine="59" d="M734.68,417.05 C896.15,438.8 1105.9337,467.0493 1279.0337,490.3593 " fill="none" id="CurrencyConversionService-to-CurrencyConversionDTO" style="stroke:#000000;stroke-width:1.0;"/><polygon fill="#000000" points="1284.98,491.16,1276.5943,485.9947,1280.0247,490.4927,1275.5267,493.9231,1284.98,491.16" style="stroke:#000000;stroke-width:1.0;"/></g><!--link CurrencyConversionService to CurrencyConversionRepository--><g id="link_CurrencyConversionService_CurrencyConversionRepository"><path codeLine="60" d="M906.48,384.97 C1332.84,387.23 1973.74,399.2 2214,448.6 C2273.41,460.81 2332.4546,485.2791 2374.7246,505.0391 " fill="none" id="CurrencyConversionService-to-CurrencyConversionRepository" style="stroke:#000000;stroke-width:1.0;"/><polygon fill="#000000" points="2380.16,507.58,2373.7008,500.145,2375.6305,505.4626,2370.3129,507.3923,2380.16,507.58" style="stroke:#000000;stroke-width:1.0;"/></g><!--link CurrencyConversionService to ApiResponse--><g id="link_CurrencyConversionService_ApiResponse"><path codeLine="61" d="M500,417.01 C500,438.81 500,461.98 500,485.34 " fill="none" id="CurrencyConversionService-to-ApiResponse" style="stroke:#000000;stroke-width:1.0;"/><polygon fill="#000000" points="500,491.34,504,482.34,500,486.34,496,482.34,500,491.34" style="stroke:#000000;stroke-width:1.0;"/></g><!--link CurrencyConversionDTO to Currency--><g id="link_CurrencyConversionDTO_Currency"><path codeLine="62" d="M1868.53,572.66 C1996.25,589.21 2148.42,607.48 2286,620.19 C2479.34,638.05 2704.3955,648.7842 2802.8055,652.9842 " fill="none" id="CurrencyConversionDTO-to-Currency" style="stroke:#000000;stroke-width:1.0;"/><polygon fill="#000000" points="2808.8,653.24,2799.9787,648.8599,2803.8045,653.0268,2799.6376,656.8526,2808.8,653.24" style="stroke:#000000;stroke-width:1.0;"/></g><!--link CurrencyConversion to Currency--><g id="link_CurrencyConversion_Currency"><path codeLine="63" d="M2993.42,572.6 C2961.16,592.13 2928.5231,611.8934 2900.9131,628.6034 " fill="none" id="CurrencyConversion-to-Currency" style="stroke:#000000;stroke-width:1.0;"/><polygon fill="#000000" points="2895.78,631.71,2905.5508,630.4721,2900.0576,629.1211,2901.4086,623.628,2895.78,631.71" style="stroke:#000000;stroke-width:1.0;"/></g><!--link CurrencyConversionDomainService to CurrencyConversionRepository--><g id="link_CurrencyConversionDomainService_CurrencyConversionRepository"><path codeLine="64" d="M2701.74,417.05 C2665.05,425.71 2626.86,436.21 2592,448.6 C2547.66,464.35 2505.0782,486.224 2472.3882,504.484 " fill="none" id="CurrencyConversionDomainService-to-CurrencyConversionRepository" style="stroke:#000000;stroke-width:1.0;"/><polygon fill="#000000" points="2467.15,507.41,2476.9579,506.5132,2471.5152,504.9717,2473.0567,499.5289,2467.15,507.41" style="stroke:#000000;stroke-width:1.0;"/></g><!--link CurrencyConversionDomainService to CurrencyConversion--><g id="link_CurrencyConversionDomainService_CurrencyConversion"><path codeLine="65" d="M2914.14,417.01 C2941.88,438.81 2974.2634,464.2715 3003.9734,487.6315 " fill="none" id="CurrencyConversionDomainService-to-CurrencyConversion" style="stroke:#000000;stroke-width:1.0;"/><polygon fill="#000000" points="3008.69,491.34,3004.0874,482.6328,3004.7595,488.2495,2999.1427,488.9216,3008.69,491.34" style="stroke:#000000;stroke-width:1.0;"/></g><!--SRC=[jLHDRvj04BtpApRfeOxgMEsfSXL5Si1kfRX58bJAhTek4xmoxD3PTIghod_F0kR3CS6uQlS4l3TVZpTx5i63LC1kPkxjvy3__itxuVfBFs1l5lF5TBvmpYh2qdTlQsmw_pXji71-7rRG- -8uZbvBbN7YAHC9rvhzSPWzDroiOyADYbnCaDfPInmf0YgnAbN-VO7Ab5-RMWKm8yBVX_moJxYIOgt0Ll_WF3bEPelp6DYvm7IYCLPIPqXcmhCiaO8RYMeYR272904wtxLSjkzkY429hOlg4KXRgbipTyJyl1C5RYhwg7fW6ZSaO5mdOePJ36RC8jpyJ83nrAfYBZvrLF92loZmrEhd2wRGtS7A8YERvywGLF4kSE3qaS5ZOzjcsjKw2QEBOuGNibIl1_8qm4ucKQS9kB5oBb7mnBEFeKo1_Te0RRq2s9FrHRY1Q5RAVPey6kXH2ZWcqLr9Ey4Mm-S_qIQpJ0PW1r5whnsREPTFvpxvohEhqYjZvXL5hXkYheWTB4OvCa3225CkrIJ5299kxNhbxBTRlzV-kz66Zq-GePO6QLjf89K1Uk3MAOUD1pLxGEg1llGATeSxCzi6KlelPCizqUdEHgUtB82aM2YzafbsUg_MoylhrpVCUNttkkFo5JarflKd-aDRk-Pqtvlj0XsKO_Z-__kBReSaU0O0]--></g></svg>