<svg xmlns="http://www.w3.org/2000/svg" xmlns:xlink="http://www.w3.org/1999/xlink" contentStyleType="text/css" height="791px" preserveAspectRatio="none" style="width:6198px;height:791px;background:#FFFFFF;" version="1.1" viewBox="0 0 6198 791" width="6198px" zoomAndPan="magnify"><defs/><g><!--cluster com--><g id="cluster_com"><path d="M8.5,6 L42.0049,6 A3.75,3.75 0 0 1 44.5049,8.5 L51.5049,28.2969 L6041.5,28.2969 A2.5,2.5 0 0 1 6044,30.7969 L6044,781.54 A2.5,2.5 0 0 1 6041.5,784.04 L8.5,784.04 A2.5,2.5 0 0 1 6,781.54 L6,8.5 A2.5,2.5 0 0 1 8.5,6 " fill="none" style="stroke:#000000;stroke-width:1.5;"/><line style="stroke:#000000;stroke-width:1.5;" x1="6" x2="51.5049" y1="28.2969" y2="28.2969"/><text fill="#000000" font-family="sans-serif" font-size="14" font-weight="bold" lengthAdjust="spacing" textLength="32.5049" x="10" y="20.9951">com</text></g><!--cluster shelson--><g id="cluster_shelson"><path d="M32.5,49 L94.0117,49 A3.75,3.75 0 0 1 96.5117,51.5 L103.5117,71.2969 L6017.5,71.2969 A2.5,2.5 0 0 1 6020,73.7969 L6020,757.54 A2.5,2.5 0 0 1 6017.5,760.04 L32.5,760.04 A2.5,2.5 0 0 1 30,757.54 L30,51.5 A2.5,2.5 0 0 1 32.5,49 " fill="none" style="stroke:#000000;stroke-width:1.5;"/><line style="stroke:#000000;stroke-width:1.5;" x1="30" x2="103.5117" y1="71.2969" y2="71.2969"/><text fill="#000000" font-family="sans-serif" font-size="14" font-weight="bold" lengthAdjust="spacing" textLength="60.5117" x="34" y="63.9951">shelson</text></g><!--cluster application--><g id="cluster_application"><path d="M56.5,92 L145.4102,92 A3.75,3.75 0 0 1 147.9102,94.5 L154.9102,114.2969 L2235.5,114.2969 A2.5,2.5 0 0 1 2238,116.7969 L2238,625.54 A2.5,2.5 0 0 1 2235.5,628.04 L56.5,628.04 A2.5,2.5 0 0 1 54,625.54 L54,94.5 A2.5,2.5 0 0 1 56.5,92 " fill="none" style="stroke:#000000;stroke-width:1.5;"/><line style="stroke:#000000;stroke-width:1.5;" x1="54" x2="154.9102" y1="114.2969" y2="114.2969"/><text fill="#000000" font-family="sans-serif" font-size="14" font-weight="bold" lengthAdjust="spacing" textLength="87.9102" x="58" y="106.9951">application</text></g><!--cluster controller--><g id="cluster_controller"><path d="M143.5,135 L221.5957,135 A3.75,3.75 0 0 1 224.0957,137.5 L231.0957,157.2969 L1033.5,157.2969 A2.5,2.5 0 0 1 1036,159.7969 L1036,247.8 A2.5,2.5 0 0 1 1033.5,250.3 L143.5,250.3 A2.5,2.5 0 0 1 141,247.8 L141,137.5 A2.5,2.5 0 0 1 143.5,135 " fill="none" style="stroke:#000000;stroke-width:1.5;"/><line style="stroke:#000000;stroke-width:1.5;" x1="141" x2="231.0957" y1="157.2969" y2="157.2969"/><text fill="#000000" font-family="sans-serif" font-size="14" font-weight="bold" lengthAdjust="spacing" textLength="77.0957" x="145" y="149.9951">controller</text></g><!--cluster dto--><g id="cluster_dto"><path d="M948.5,472.45 L975.832,472.45 A3.75,3.75 0 0 1 978.332,474.95 L985.332,494.7469 L2211.5,494.7469 A2.5,2.5 0 0 1 2214,497.2469 L2214,601.54 A2.5,2.5 0 0 1 2211.5,604.04 L948.5,604.04 A2.5,2.5 0 0 1 946,601.54 L946,474.95 A2.5,2.5 0 0 1 948.5,472.45 " fill="none" style="stroke:#000000;stroke-width:1.5;"/><line style="stroke:#000000;stroke-width:1.5;" x1="946" x2="985.332" y1="494.7469" y2="494.7469"/><text fill="#000000" font-family="sans-serif" font-size="14" font-weight="bold" lengthAdjust="spacing" textLength="26.332" x="950" y="487.4451">dto</text></g><!--cluster service--><g id="cluster_service"><path d="M80.5,317.3 L137.9512,317.3 A3.75,3.75 0 0 1 140.4512,319.8 L147.4512,339.5969 L919.5,339.5969 A2.5,2.5 0 0 1 922,342.0969 L922,601.54 A2.5,2.5 0 0 1 919.5,604.04 L80.5,604.04 A2.5,2.5 0 0 1 78,601.54 L78,319.8 A2.5,2.5 0 0 1 80.5,317.3 " fill="none" style="stroke:#000000;stroke-width:1.5;"/><line style="stroke:#000000;stroke-width:1.5;" x1="78" x2="147.4512" y1="339.5969" y2="339.5969"/><text fill="#000000" font-family="sans-serif" font-size="14" font-weight="bold" lengthAdjust="spacing" textLength="56.4512" x="82" y="332.2951">service</text></g><!--cluster domain--><g id="cluster_domain"><path d="M2264.5,274.3 L2323.9404,274.3 A3.75,3.75 0 0 1 2326.4404,276.8 L2333.4404,296.5969 L3547.5,296.5969 A2.5,2.5 0 0 1 3550,299.0969 L3550,733.54 A2.5,2.5 0 0 1 3547.5,736.04 L2264.5,736.04 A2.5,2.5 0 0 1 2262,733.54 L2262,276.8 A2.5,2.5 0 0 1 2264.5,274.3 " fill="none" style="stroke:#000000;stroke-width:1.5;"/><line style="stroke:#000000;stroke-width:1.5;" x1="2262" x2="2333.4404" y1="296.5969" y2="296.5969"/><text fill="#000000" font-family="sans-serif" font-size="14" font-weight="bold" lengthAdjust="spacing" textLength="58.4404" x="2266" y="289.2951">domain</text></g><!--cluster model--><g id="cluster_model"><path d="M2594.5,472.45 L2644.0215,472.45 A3.75,3.75 0 0 1 2646.5215,474.95 L2653.5215,494.7469 L3523.5,494.7469 A2.5,2.5 0 0 1 3526,497.2469 L3526,709.54 A2.5,2.5 0 0 1 3523.5,712.04 L2594.5,712.04 A2.5,2.5 0 0 1 2592,709.54 L2592,474.95 A2.5,2.5 0 0 1 2594.5,472.45 " fill="none" style="stroke:#000000;stroke-width:1.5;"/><line style="stroke:#000000;stroke-width:1.5;" x1="2592" x2="2653.5215" y1="494.7469" y2="494.7469"/><text fill="#000000" font-family="sans-serif" font-size="14" font-weight="bold" lengthAdjust="spacing" textLength="48.5215" x="2596" y="487.4451">model</text></g><!--cluster repository--><g id="cluster_repository"><path d="M2288.5,488.74 L2371.0117,488.74 A3.75,3.75 0 0 1 2373.5117,491.24 L2380.5117,511.0369 L2565.5,511.0369 A2.5,2.5 0 0 1 2568,513.5369 L2568,585.24 A2.5,2.5 0 0 1 2565.5,587.74 L2288.5,587.74 A2.5,2.5 0 0 1 2286,585.24 L2286,491.24 A2.5,2.5 0 0 1 2288.5,488.74 " fill="none" style="stroke:#000000;stroke-width:1.5;"/><line style="stroke:#000000;stroke-width:1.5;" x1="2286" x2="2380.5117" y1="511.0369" y2="511.0369"/><text fill="#000000" font-family="sans-serif" font-size="14" font-weight="bold" lengthAdjust="spacing" textLength="81.5117" x="2290" y="503.7351">repository</text></g><!--cluster service--><g id="cluster_service"><path d="M2473.5,317.3 L2530.9512,317.3 A3.75,3.75 0 0 1 2533.4512,319.8 L2540.4512,339.5969 L3274.5,339.5969 A2.5,2.5 0 0 1 3277,342.0969 L3277,430.09 A2.5,2.5 0 0 1 3274.5,432.59 L2473.5,432.59 A2.5,2.5 0 0 1 2471,430.09 L2471,319.8 A2.5,2.5 0 0 1 2473.5,317.3 " fill="none" style="stroke:#000000;stroke-width:1.5;"/><line style="stroke:#000000;stroke-width:1.5;" x1="2471" x2="2540.4512" y1="339.5969" y2="339.5969"/><text fill="#000000" font-family="sans-serif" font-size="14" font-weight="bold" lengthAdjust="spacing" textLength="56.4512" x="2475" y="332.2951">service</text></g><!--cluster infrastructure--><g id="cluster_infrastructure"><path d="M3576.5,100.15 L3687.9619,100.15 A3.75,3.75 0 0 1 3690.4619,102.65 L3697.4619,122.4469 L4082.5,122.4469 A2.5,2.5 0 0 1 4085,124.9469 L4085,445.95 A2.5,2.5 0 0 1 4082.5,448.45 L3576.5,448.45 A2.5,2.5 0 0 1 3574,445.95 L3574,102.65 A2.5,2.5 0 0 1 3576.5,100.15 " fill="none" style="stroke:#000000;stroke-width:1.5;"/><line style="stroke:#000000;stroke-width:1.5;" x1="3574" x2="3697.4619" y1="122.4469" y2="122.4469"/><text fill="#000000" font-family="sans-serif" font-size="14" font-weight="bold" lengthAdjust="spacing" textLength="110.4619" x="3578" y="115.1451">infrastructure</text></g><!--cluster exception--><g id="cluster_exception"><path d="M3600.5,143.15 L3678.917,143.15 A3.75,3.75 0 0 1 3681.417,145.65 L3688.417,165.4469 L4058.5,165.4469 A2.5,2.5 0 0 1 4061,167.9469 L4061,421.95 A2.5,2.5 0 0 1 4058.5,424.45 L3600.5,424.45 A2.5,2.5 0 0 1 3598,421.95 L3598,145.65 A2.5,2.5 0 0 1 3600.5,143.15 " fill="none" style="stroke:#000000;stroke-width:1.5;"/><line style="stroke:#000000;stroke-width:1.5;" x1="3598" x2="3688.417" y1="165.4469" y2="165.4469"/><text fill="#000000" font-family="sans-serif" font-size="14" font-weight="bold" lengthAdjust="spacing" textLength="77.417" x="3602" y="158.1451">exception</text></g><!--cluster logging--><g id="cluster_logging"><path d="M4111.5,143.15 L4171.7471,143.15 A3.75,3.75 0 0 1 4174.2471,145.65 L4181.2471,165.4469 L4372.5,165.4469 A2.5,2.5 0 0 1 4375,167.9469 L4375,239.65 A2.5,2.5 0 0 1 4372.5,242.15 L4111.5,242.15 A2.5,2.5 0 0 1 4109,239.65 L4109,145.65 A2.5,2.5 0 0 1 4111.5,143.15 " fill="none" style="stroke:#000000;stroke-width:1.5;"/><line style="stroke:#000000;stroke-width:1.5;" x1="4109" x2="4181.2471" y1="165.4469" y2="165.4469"/><text fill="#000000" font-family="sans-serif" font-size="14" font-weight="bold" lengthAdjust="spacing" textLength="59.2471" x="4113" y="158.1451">logging</text></g><!--cluster console--><g id="cluster_console"><path d="M4401.5,143.15 L4462.6289,143.15 A3.75,3.75 0 0 1 4465.1289,145.65 L4472.1289,165.4469 L4676.5,165.4469 A2.5,2.5 0 0 1 4679,167.9469 L4679,239.65 A2.5,2.5 0 0 1 4676.5,242.15 L4401.5,242.15 A2.5,2.5 0 0 1 4399,239.65 L4399,145.65 A2.5,2.5 0 0 1 4401.5,143.15 " fill="none" style="stroke:#000000;stroke-width:1.5;"/><line style="stroke:#000000;stroke-width:1.5;" x1="4399" x2="4472.1289" y1="165.4469" y2="165.4469"/><text fill="#000000" font-family="sans-serif" font-size="14" font-weight="bold" lengthAdjust="spacing" textLength="60.1289" x="4403" y="158.1451">console</text></g><!--cluster config--><g id="cluster_config"><path d="M4705.5,135 L4755.2949,135 A3.75,3.75 0 0 1 4757.7949,137.5 L4764.7949,157.2969 L5993.5,157.2969 A2.5,2.5 0 0 1 5996,159.7969 L5996,247.8 A2.5,2.5 0 0 1 5993.5,250.3 L4705.5,250.3 A2.5,2.5 0 0 1 4703,247.8 L4703,137.5 A2.5,2.5 0 0 1 4705.5,135 " fill="none" style="stroke:#000000;stroke-width:1.5;"/><line style="stroke:#000000;stroke-width:1.5;" x1="4703" x2="4764.7949" y1="157.2969" y2="157.2969"/><text fill="#000000" font-family="sans-serif" font-size="14" font-weight="bold" lengthAdjust="spacing" textLength="48.7949" x="4707" y="149.9951">config</text></g><!--class CurrencyConversionController--><g id="elem_CurrencyConversionController"><rect codeLine="14" fill="#F9E79F" height="64.2969" id="CurrencyConversionController" rx="2.5" ry="2.5" style="stroke:#000000;stroke-width:1.0;" width="685.2236" x="157.39" y="170"/><ellipse cx="390.1058" cy="186" fill="#ADD1B2" rx="11" ry="11" style="stroke:#181818;stroke-width:1.0;"/><path d="M393.0746,191.6406 Q392.4964,191.9375 391.8558,192.0781 Q391.2152,192.2344 390.5121,192.2344 Q388.0121,192.2344 386.6839,190.5938 Q385.3714,188.9375 385.3714,185.8125 Q385.3714,182.6875 386.6839,181.0313 Q388.0121,179.375 390.5121,179.375 Q391.2152,179.375 391.8558,179.5313 Q392.5121,179.6875 393.0746,179.9844 L393.0746,182.7031 Q392.4496,182.125 391.8558,181.8594 Q391.2621,181.5781 390.6371,181.5781 Q389.2933,181.5781 388.6058,182.6563 Q387.9183,183.7188 387.9183,185.8125 Q387.9183,187.9063 388.6058,188.9844 Q389.2933,190.0469 390.6371,190.0469 Q391.2621,190.0469 391.8558,189.7813 Q392.4496,189.5 393.0746,188.9219 L393.0746,191.6406 Z " fill="#000000"/><text fill="#000000" font-family="sans-serif" font-size="14" lengthAdjust="spacing" textLength="211.292" x="410.6058" y="190.8467">CurrencyConversionController</text><line style="stroke:#000000;stroke-width:1.0;" x1="158.39" x2="841.6136" y1="202" y2="202"/><line style="stroke:#000000;stroke-width:1.0;" x1="158.39" x2="841.6136" y1="210" y2="210"/><ellipse cx="168.39" cy="223.6484" fill="#84BE84" rx="3" ry="3" style="stroke:#038048;stroke-width:1.0;"/><text fill="#000000" font-family="sans-serif" font-size="14" lengthAdjust="spacing" textLength="659.2236" x="177.39" y="226.9951">convertCurrency(Currency source, Currency target, double amount): CurrencyConversionDTO</text></g><!--class HomeController--><g id="elem_HomeController"><rect codeLine="17" fill="#F9E79F" height="64.2969" id="HomeController" rx="2.5" ry="2.5" style="stroke:#000000;stroke-width:1.0;" width="142.5166" x="877.74" y="170"/><ellipse cx="892.74" cy="186" fill="#ADD1B2" rx="11" ry="11" style="stroke:#181818;stroke-width:1.0;"/><path d="M895.7088,191.6406 Q895.1306,191.9375 894.49,192.0781 Q893.8494,192.2344 893.1463,192.2344 Q890.6463,192.2344 889.3181,190.5938 Q888.0056,188.9375 888.0056,185.8125 Q888.0056,182.6875 889.3181,181.0313 Q890.6463,179.375 893.1463,179.375 Q893.8494,179.375 894.49,179.5313 Q895.1463,179.6875 895.7088,179.9844 L895.7088,182.7031 Q895.0838,182.125 894.49,181.8594 Q893.8963,181.5781 893.2713,181.5781 Q891.9275,181.5781 891.24,182.6563 Q890.5525,183.7188 890.5525,185.8125 Q890.5525,187.9063 891.24,188.9844 Q891.9275,190.0469 893.2713,190.0469 Q893.8963,190.0469 894.49,189.7813 Q895.0838,189.5 895.7088,188.9219 L895.7088,191.6406 Z " fill="#000000"/><text fill="#000000" font-family="sans-serif" font-size="14" lengthAdjust="spacing" textLength="110.5166" x="906.74" y="190.8467">HomeController</text><line style="stroke:#000000;stroke-width:1.0;" x1="878.74" x2="1019.2566" y1="202" y2="202"/><line style="stroke:#000000;stroke-width:1.0;" x1="878.74" x2="1019.2566" y1="210" y2="210"/><ellipse cx="888.74" cy="223.6484" fill="#84BE84" rx="3" ry="3" style="stroke:#038048;stroke-width:1.0;"/><text fill="#000000" font-family="sans-serif" font-size="14" lengthAdjust="spacing" textLength="101.5615" x="897.74" y="226.9951">home(): String</text></g><!--class CurrencyConversionDTO--><g id="elem_CurrencyConversionDTO"><rect codeLine="23" fill="#F9E79F" height="80.5938" id="CurrencyConversionDTO" rx="2.5" ry="2.5" style="stroke:#000000;stroke-width:1.0;" width="1235.0654" x="962.47" y="507.45"/><ellipse cx="1489.5174" cy="523.45" fill="#ADD1B2" rx="11" ry="11" style="stroke:#181818;stroke-width:1.0;"/><path d="M1492.4861,529.0906 Q1491.908,529.3875 1491.2674,529.5281 Q1490.6267,529.6844 1489.9236,529.6844 Q1487.4236,529.6844 1486.0955,528.0438 Q1484.783,526.3875 1484.783,523.2625 Q1484.783,520.1375 1486.0955,518.4813 Q1487.4236,516.825 1489.9236,516.825 Q1490.6267,516.825 1491.2674,516.9813 Q1491.9236,517.1375 1492.4861,517.4344 L1492.4861,520.1531 Q1491.8611,519.575 1491.2674,519.3094 Q1490.6736,519.0281 1490.0486,519.0281 Q1488.7049,519.0281 1488.0174,520.1063 Q1487.3299,521.1688 1487.3299,523.2625 Q1487.3299,525.3563 1488.0174,526.4344 Q1488.7049,527.4969 1490.0486,527.4969 Q1490.6736,527.4969 1491.2674,527.2313 Q1491.8611,526.95 1492.4861,526.3719 L1492.4861,529.0906 Z " fill="#000000"/><text fill="#000000" font-family="sans-serif" font-size="14" lengthAdjust="spacing" textLength="172.4707" x="1510.0174" y="528.2967">CurrencyConversionDTO</text><line style="stroke:#000000;stroke-width:1.0;" x1="963.47" x2="2196.5354" y1="539.45" y2="539.45"/><line style="stroke:#000000;stroke-width:1.0;" x1="963.47" x2="2196.5354" y1="547.45" y2="547.45"/><ellipse cx="973.47" cy="561.0984" fill="#84BE84" rx="3" ry="3" style="stroke:#038048;stroke-width:1.0;"/><text fill="#000000" font-family="sans-serif" font-size="14" lengthAdjust="spacing" textLength="183.3945" x="982.47" y="564.4451">CurrencyConversionDTO()</text><ellipse cx="973.47" cy="577.3953" fill="#84BE84" rx="3" ry="3" style="stroke:#038048;stroke-width:1.0;"/><text fill="#000000" font-family="sans-serif" font-size="14" lengthAdjust="spacing" textLength="1209.0654" x="982.47" y="580.742">CurrencyConversionDTO(Currency sourceCurrency, Currency targetCurrency, double conversionRate, LocalDateTime queryDate, double amount, double convertedAmount)</text></g><!--class CurrencyConversionService--><g id="elem_CurrencyConversionService"><rect codeLine="30" fill="#F9E79F" height="64.2969" id="CurrencyConversionService" rx="2.5" ry="2.5" style="stroke:#000000;stroke-width:1.0;" width="812.4814" x="93.76" y="352.3"/><ellipse cx="398.8205" cy="368.3" fill="#ADD1B2" rx="11" ry="11" style="stroke:#181818;stroke-width:1.0;"/><path d="M401.7893,373.9406 Q401.2112,374.2375 400.5705,374.3781 Q399.9299,374.5344 399.2268,374.5344 Q396.7268,374.5344 395.3987,372.8937 Q394.0862,371.2375 394.0862,368.1125 Q394.0862,364.9875 395.3987,363.3312 Q396.7268,361.675 399.2268,361.675 Q399.9299,361.675 400.5705,361.8312 Q401.2268,361.9875 401.7893,362.2844 L401.7893,365.0031 Q401.1643,364.425 400.5705,364.1594 Q399.9768,363.8781 399.3518,363.8781 Q398.008,363.8781 397.3205,364.9562 Q396.633,366.0187 396.633,368.1125 Q396.633,370.2062 397.3205,371.2844 Q398.008,372.3469 399.3518,372.3469 Q399.9768,372.3469 400.5705,372.0812 Q401.1643,371.8 401.7893,371.2219 L401.7893,373.9406 Z " fill="#000000"/><text fill="#000000" font-family="sans-serif" font-size="14" lengthAdjust="spacing" textLength="193.8604" x="419.3205" y="373.1467">CurrencyConversionService</text><line style="stroke:#000000;stroke-width:1.0;" x1="94.76" x2="905.2414" y1="384.3" y2="384.3"/><line style="stroke:#000000;stroke-width:1.0;" x1="94.76" x2="905.2414" y1="392.3" y2="392.3"/><ellipse cx="104.76" cy="405.9484" fill="#84BE84" rx="3" ry="3" style="stroke:#038048;stroke-width:1.0;"/><text fill="#000000" font-family="sans-serif" font-size="14" lengthAdjust="spacing" textLength="786.4814" x="113.76" y="409.2951">convertCurrency(Currency sourceCurrency, Currency targetCurrency, double amount): CurrencyConversionDTO</text></g><!--class ApiResponse--><g id="elem_ApiResponse"><rect codeLine="33" fill="#F9E79F" height="80.5938" id="ApiResponse" rx="2.5" ry="2.5" style="stroke:#000000;stroke-width:1.0;" width="291.501" x="354.25" y="507.45"/><ellipse cx="450.6401" cy="523.45" fill="#ADD1B2" rx="11" ry="11" style="stroke:#181818;stroke-width:1.0;"/><path d="M453.6089,529.0906 Q453.0308,529.3875 452.3901,529.5281 Q451.7495,529.6844 451.0464,529.6844 Q448.5464,529.6844 447.2183,528.0438 Q445.9058,526.3875 445.9058,523.2625 Q445.9058,520.1375 447.2183,518.4813 Q448.5464,516.825 451.0464,516.825 Q451.7495,516.825 452.3901,516.9813 Q453.0464,517.1375 453.6089,517.4344 L453.6089,520.1531 Q452.9839,519.575 452.3901,519.3094 Q451.7964,519.0281 451.1714,519.0281 Q449.8276,519.0281 449.1401,520.1063 Q448.4526,521.1688 448.4526,523.2625 Q448.4526,525.3563 449.1401,526.4344 Q449.8276,527.4969 451.1714,527.4969 Q451.7964,527.4969 452.3901,527.2313 Q452.9839,526.95 453.6089,526.3719 L453.6089,529.0906 Z " fill="#000000"/><text fill="#000000" font-family="sans-serif" font-size="14" lengthAdjust="spacing" textLength="90.2207" x="471.1401" y="528.2967">ApiResponse</text><line style="stroke:#000000;stroke-width:1.0;" x1="355.25" x2="644.751" y1="539.45" y2="539.45"/><line style="stroke:#000000;stroke-width:1.0;" x1="355.25" x2="644.751" y1="547.45" y2="547.45"/><ellipse cx="365.25" cy="561.0984" fill="#84BE84" rx="3" ry="3" style="stroke:#038048;stroke-width:1.0;"/><text fill="#000000" font-family="sans-serif" font-size="14" lengthAdjust="spacing" textLength="236.0791" x="374.25" y="564.4451">getRates(): Map&lt;String, Double&gt;</text><ellipse cx="365.25" cy="577.3953" fill="#84BE84" rx="3" ry="3" style="stroke:#038048;stroke-width:1.0;"/><text fill="#000000" font-family="sans-serif" font-size="14" lengthAdjust="spacing" textLength="265.501" x="374.25" y="580.742">setRates(Map&lt;String, Double&gt; rates)</text></g><!--class Currency--><g id="elem_Currency"><rect codeLine="40" fill="#F9E79F" height="48" id="Currency" rx="2.5" ry="2.5" style="stroke:#000000;stroke-width:1.0;" width="95.6289" x="2809.19" y="648.04"/><ellipse cx="2824.19" cy="664.04" fill="#ADD1B2" rx="11" ry="11" style="stroke:#181818;stroke-width:1.0;"/><path d="M2827.1588,669.6806 Q2826.5806,669.9775 2825.94,670.1181 Q2825.2994,670.2744 2824.5963,670.2744 Q2822.0963,670.2744 2820.7681,668.6338 Q2819.4556,666.9775 2819.4556,663.8525 Q2819.4556,660.7275 2820.7681,659.0713 Q2822.0963,657.415 2824.5963,657.415 Q2825.2994,657.415 2825.94,657.5713 Q2826.5963,657.7275 2827.1588,658.0244 L2827.1588,660.7431 Q2826.5338,660.165 2825.94,659.8994 Q2825.3463,659.6181 2824.7213,659.6181 Q2823.3775,659.6181 2822.69,660.6963 Q2822.0025,661.7588 2822.0025,663.8525 Q2822.0025,665.9463 2822.69,667.0244 Q2823.3775,668.0869 2824.7213,668.0869 Q2825.3463,668.0869 2825.94,667.8213 Q2826.5338,667.54 2827.1588,666.9619 L2827.1588,669.6806 Z " fill="#000000"/><text fill="#000000" font-family="sans-serif" font-size="14" lengthAdjust="spacing" textLength="63.6289" x="2838.19" y="668.8867">Currency</text><line style="stroke:#000000;stroke-width:1.0;" x1="2810.19" x2="2903.8189" y1="680.04" y2="680.04"/><line style="stroke:#000000;stroke-width:1.0;" x1="2810.19" x2="2903.8189" y1="688.04" y2="688.04"/></g><!--class CurrencyConversion--><g id="elem_CurrencyConversion"><rect codeLine="41" fill="#F9E79F" height="80.5938" id="CurrencyConversion" rx="2.5" ry="2.5" style="stroke:#000000;stroke-width:1.0;" width="902.7705" x="2607.61" y="507.45"/><ellipse cx="2983.6857" cy="523.45" fill="#ADD1B2" rx="11" ry="11" style="stroke:#181818;stroke-width:1.0;"/><path d="M2986.6544,529.0906 Q2986.0763,529.3875 2985.4357,529.5281 Q2984.7951,529.6844 2984.0919,529.6844 Q2981.5919,529.6844 2980.2638,528.0438 Q2978.9513,526.3875 2978.9513,523.2625 Q2978.9513,520.1375 2980.2638,518.4813 Q2981.5919,516.825 2984.0919,516.825 Q2984.7951,516.825 2985.4357,516.9813 Q2986.0919,517.1375 2986.6544,517.4344 L2986.6544,520.1531 Q2986.0294,519.575 2985.4357,519.3094 Q2984.8419,519.0281 2984.2169,519.0281 Q2982.8732,519.0281 2982.1857,520.1063 Q2981.4982,521.1688 2981.4982,523.2625 Q2981.4982,525.3563 2982.1857,526.4344 Q2982.8732,527.4969 2984.2169,527.4969 Q2984.8419,527.4969 2985.4357,527.2313 Q2986.0294,526.95 2986.6544,526.3719 L2986.6544,529.0906 Z " fill="#000000"/><text fill="#000000" font-family="sans-serif" font-size="14" lengthAdjust="spacing" textLength="142.1191" x="3004.1857" y="528.2967">CurrencyConversion</text><line style="stroke:#000000;stroke-width:1.0;" x1="2608.61" x2="3509.3805" y1="539.45" y2="539.45"/><line style="stroke:#000000;stroke-width:1.0;" x1="2608.61" x2="3509.3805" y1="547.45" y2="547.45"/><ellipse cx="2618.61" cy="561.0984" fill="#84BE84" rx="3" ry="3" style="stroke:#038048;stroke-width:1.0;"/><text fill="#000000" font-family="sans-serif" font-size="14" lengthAdjust="spacing" textLength="153.043" x="2627.61" y="564.4451">CurrencyConversion()</text><ellipse cx="2618.61" cy="577.3953" fill="#84BE84" rx="3" ry="3" style="stroke:#038048;stroke-width:1.0;"/><text fill="#000000" font-family="sans-serif" font-size="14" lengthAdjust="spacing" textLength="876.7705" x="2627.61" y="580.742">CurrencyConversion(Currency sourceCurrency, Currency targetCurrency, double conversionRate, LocalDateTime queryDate)</text></g><!--class CurrencyConversionRepository--><g id="elem_CurrencyConversionRepository"><rect codeLine="48" fill="#F9E79F" height="48" id="CurrencyConversionRepository" rx="2.5" ry="2.5" style="stroke:#000000;stroke-width:1.0;" width="249.1914" x="2302.4" y="523.74"/><ellipse cx="2317.4" cy="539.74" fill="#B4A7E5" rx="11" ry="11" style="stroke:#181818;stroke-width:1.0;"/><path d="M2313.3219,535.5056 L2313.3219,533.3494 L2320.7125,533.3494 L2320.7125,535.5056 L2318.2438,535.5056 L2318.2438,543.5838 L2320.7125,543.5838 L2320.7125,545.74 L2313.3219,545.74 L2313.3219,543.5838 L2315.7906,543.5838 L2315.7906,535.5056 L2313.3219,535.5056 Z " fill="#000000"/><text fill="#000000" font-family="sans-serif" font-size="14" font-style="italic" lengthAdjust="spacing" textLength="217.1914" x="2331.4" y="544.5867">CurrencyConversionRepository</text><line style="stroke:#000000;stroke-width:1.0;" x1="2303.4" x2="2550.5914" y1="555.74" y2="555.74"/><line style="stroke:#000000;stroke-width:1.0;" x1="2303.4" x2="2550.5914" y1="563.74" y2="563.74"/></g><!--class CurrencyConversionDomainService--><g id="elem_CurrencyConversionDomainService"><rect codeLine="52" fill="#F9E79F" height="64.2969" id="CurrencyConversionDomainService" rx="2.5" ry="2.5" style="stroke:#000000;stroke-width:1.0;" width="774.2754" x="2486.86" y="352.3"/><ellipse cx="2745.6549" cy="368.3" fill="#ADD1B2" rx="11" ry="11" style="stroke:#181818;stroke-width:1.0;"/><path d="M2748.6237,373.9406 Q2748.0455,374.2375 2747.4049,374.3781 Q2746.7643,374.5344 2746.0612,374.5344 Q2743.5612,374.5344 2742.233,372.8937 Q2740.9205,371.2375 2740.9205,368.1125 Q2740.9205,364.9875 2742.233,363.3312 Q2743.5612,361.675 2746.0612,361.675 Q2746.7643,361.675 2747.4049,361.8312 Q2748.0612,361.9875 2748.6237,362.2844 L2748.6237,365.0031 Q2747.9987,364.425 2747.4049,364.1594 Q2746.8112,363.8781 2746.1862,363.8781 Q2744.8424,363.8781 2744.1549,364.9562 Q2743.4674,366.0187 2743.4674,368.1125 Q2743.4674,370.2062 2744.1549,371.2844 Q2744.8424,372.3469 2746.1862,372.3469 Q2746.8112,372.3469 2747.4049,372.0812 Q2747.9987,371.8 2748.6237,371.2219 L2748.6237,373.9406 Z " fill="#000000"/><text fill="#000000" font-family="sans-serif" font-size="14" lengthAdjust="spacing" textLength="248.1855" x="2766.1549" y="373.1467">CurrencyConversionDomainService</text><line style="stroke:#000000;stroke-width:1.0;" x1="2487.86" x2="3260.1354" y1="384.3" y2="384.3"/><line style="stroke:#000000;stroke-width:1.0;" x1="2487.86" x2="3260.1354" y1="392.3" y2="392.3"/><ellipse cx="2497.86" cy="405.9484" fill="#84BE84" rx="3" ry="3" style="stroke:#038048;stroke-width:1.0;"/><text fill="#000000" font-family="sans-serif" font-size="14" lengthAdjust="spacing" textLength="748.2754" x="2506.86" y="409.2951">performConversion(Currency sourceCurrency, Currency targetCurrency, double rate): CurrencyConversion</text></g><!--class BusinessException--><g id="elem_BusinessException"><rect codeLine="58" fill="#F9E79F" height="48" id="BusinessException" rx="2.5" ry="2.5" style="stroke:#000000;stroke-width:1.0;" width="162.8809" x="3613.56" y="360.45"/><ellipse cx="3628.56" cy="376.45" fill="#ADD1B2" rx="11" ry="11" style="stroke:#181818;stroke-width:1.0;"/><path d="M3631.5288,382.0906 Q3630.9506,382.3875 3630.31,382.5281 Q3629.6694,382.6844 3628.9663,382.6844 Q3626.4663,382.6844 3625.1381,381.0438 Q3623.8256,379.3875 3623.8256,376.2625 Q3623.8256,373.1375 3625.1381,371.4813 Q3626.4663,369.825 3628.9663,369.825 Q3629.6694,369.825 3630.31,369.9813 Q3630.9663,370.1375 3631.5288,370.4344 L3631.5288,373.1531 Q3630.9038,372.575 3630.31,372.3094 Q3629.7163,372.0281 3629.0913,372.0281 Q3627.7475,372.0281 3627.06,373.1063 Q3626.3725,374.1688 3626.3725,376.2625 Q3626.3725,378.3563 3627.06,379.4344 Q3627.7475,380.4969 3629.0913,380.4969 Q3629.7163,380.4969 3630.31,380.2313 Q3630.9038,379.95 3631.5288,379.3719 L3631.5288,382.0906 Z " fill="#000000"/><text fill="#000000" font-family="sans-serif" font-size="14" lengthAdjust="spacing" textLength="130.8809" x="3642.56" y="381.2967">BusinessException</text><line style="stroke:#000000;stroke-width:1.0;" x1="3614.56" x2="3775.4409" y1="392.45" y2="392.45"/><line style="stroke:#000000;stroke-width:1.0;" x1="3614.56" x2="3775.4409" y1="400.45" y2="400.45"/></g><!--class RuntimeException--><g id="elem_RuntimeException"><rect fill="#F9E79F" height="48" id="RuntimeException" rx="2.5" ry="2.5" style="stroke:#000000;stroke-width:1.0;" width="160.249" x="3730.88" y="178.15"/><ellipse cx="3745.88" cy="194.15" fill="#ADD1B2" rx="11" ry="11" style="stroke:#181818;stroke-width:1.0;"/><path d="M3748.8488,199.7906 Q3748.2706,200.0875 3747.63,200.2281 Q3746.9894,200.3844 3746.2863,200.3844 Q3743.7863,200.3844 3742.4581,198.7437 Q3741.1456,197.0875 3741.1456,193.9625 Q3741.1456,190.8375 3742.4581,189.1812 Q3743.7863,187.525 3746.2863,187.525 Q3746.9894,187.525 3747.63,187.6812 Q3748.2863,187.8375 3748.8488,188.1344 L3748.8488,190.8531 Q3748.2238,190.275 3747.63,190.0094 Q3747.0363,189.7281 3746.4113,189.7281 Q3745.0675,189.7281 3744.38,190.8062 Q3743.6925,191.8687 3743.6925,193.9625 Q3743.6925,196.0562 3744.38,197.1344 Q3745.0675,198.1969 3746.4113,198.1969 Q3747.0363,198.1969 3747.63,197.9312 Q3748.2238,197.65 3748.8488,197.0719 L3748.8488,199.7906 Z " fill="#000000"/><text fill="#000000" font-family="sans-serif" font-size="14" lengthAdjust="spacing" textLength="128.249" x="3759.88" y="198.9967">RuntimeException</text><line style="stroke:#000000;stroke-width:1.0;" x1="3731.88" x2="3890.129" y1="210.15" y2="210.15"/><line style="stroke:#000000;stroke-width:1.0;" x1="3731.88" x2="3890.129" y1="218.15" y2="218.15"/></g><!--class ResourceNotFoundException--><g id="elem_ResourceNotFoundException"><rect codeLine="59" fill="#F9E79F" height="48" id="ResourceNotFoundException" rx="2.5" ry="2.5" style="stroke:#000000;stroke-width:1.0;" width="234.0635" x="3810.97" y="360.45"/><ellipse cx="3825.97" cy="376.45" fill="#ADD1B2" rx="11" ry="11" style="stroke:#181818;stroke-width:1.0;"/><path d="M3828.9388,382.0906 Q3828.3606,382.3875 3827.72,382.5281 Q3827.0794,382.6844 3826.3763,382.6844 Q3823.8763,382.6844 3822.5481,381.0438 Q3821.2356,379.3875 3821.2356,376.2625 Q3821.2356,373.1375 3822.5481,371.4813 Q3823.8763,369.825 3826.3763,369.825 Q3827.0794,369.825 3827.72,369.9813 Q3828.3763,370.1375 3828.9388,370.4344 L3828.9388,373.1531 Q3828.3138,372.575 3827.72,372.3094 Q3827.1263,372.0281 3826.5013,372.0281 Q3825.1575,372.0281 3824.47,373.1063 Q3823.7825,374.1688 3823.7825,376.2625 Q3823.7825,378.3563 3824.47,379.4344 Q3825.1575,380.4969 3826.5013,380.4969 Q3827.1263,380.4969 3827.72,380.2313 Q3828.3138,379.95 3828.9388,379.3719 L3828.9388,382.0906 Z " fill="#000000"/><text fill="#000000" font-family="sans-serif" font-size="14" lengthAdjust="spacing" textLength="202.0635" x="3839.97" y="381.2967">ResourceNotFoundException</text><line style="stroke:#000000;stroke-width:1.0;" x1="3811.97" x2="4044.0335" y1="392.45" y2="392.45"/><line style="stroke:#000000;stroke-width:1.0;" x1="3811.97" x2="4044.0335" y1="400.45" y2="400.45"/></g><!--class CustomRequestLoggingFilter--><g id="elem_CustomRequestLoggingFilter"><rect codeLine="63" fill="#F9E79F" height="48" id="CustomRequestLoggingFilter" rx="2.5" ry="2.5" style="stroke:#000000;stroke-width:1.0;" width="234.6104" x="4124.69" y="178.15"/><ellipse cx="4139.69" cy="194.15" fill="#ADD1B2" rx="11" ry="11" style="stroke:#181818;stroke-width:1.0;"/><path d="M4142.6588,199.7906 Q4142.0806,200.0875 4141.44,200.2281 Q4140.7994,200.3844 4140.0963,200.3844 Q4137.5963,200.3844 4136.2681,198.7437 Q4134.9556,197.0875 4134.9556,193.9625 Q4134.9556,190.8375 4136.2681,189.1812 Q4137.5963,187.525 4140.0963,187.525 Q4140.7994,187.525 4141.44,187.6812 Q4142.0963,187.8375 4142.6588,188.1344 L4142.6588,190.8531 Q4142.0338,190.275 4141.44,190.0094 Q4140.8463,189.7281 4140.2213,189.7281 Q4138.8775,189.7281 4138.19,190.8062 Q4137.5025,191.8687 4137.5025,193.9625 Q4137.5025,196.0562 4138.19,197.1344 Q4138.8775,198.1969 4140.2213,198.1969 Q4140.8463,198.1969 4141.44,197.9312 Q4142.0338,197.65 4142.6588,197.0719 L4142.6588,199.7906 Z " fill="#000000"/><text fill="#000000" font-family="sans-serif" font-size="14" lengthAdjust="spacing" textLength="202.6104" x="4153.69" y="198.9967">CustomRequestLoggingFilter</text><line style="stroke:#000000;stroke-width:1.0;" x1="4125.69" x2="4358.3004" y1="210.15" y2="210.15"/><line style="stroke:#000000;stroke-width:1.0;" x1="4125.69" x2="4358.3004" y1="218.15" y2="218.15"/></g><!--class CurrencyConverterConsoleApp--><g id="elem_CurrencyConverterConsoleApp"><rect codeLine="67" fill="#F9E79F" height="48" id="CurrencyConverterConsoleApp" rx="2.5" ry="2.5" style="stroke:#000000;stroke-width:1.0;" width="248.2822" x="4414.86" y="178.15"/><ellipse cx="4429.86" cy="194.15" fill="#ADD1B2" rx="11" ry="11" style="stroke:#181818;stroke-width:1.0;"/><path d="M4432.8288,199.7906 Q4432.2506,200.0875 4431.61,200.2281 Q4430.9694,200.3844 4430.2663,200.3844 Q4427.7663,200.3844 4426.4381,198.7437 Q4425.1256,197.0875 4425.1256,193.9625 Q4425.1256,190.8375 4426.4381,189.1812 Q4427.7663,187.525 4430.2663,187.525 Q4430.9694,187.525 4431.61,187.6812 Q4432.2663,187.8375 4432.8288,188.1344 L4432.8288,190.8531 Q4432.2038,190.275 4431.61,190.0094 Q4431.0163,189.7281 4430.3913,189.7281 Q4429.0475,189.7281 4428.36,190.8062 Q4427.6725,191.8687 4427.6725,193.9625 Q4427.6725,196.0562 4428.36,197.1344 Q4429.0475,198.1969 4430.3913,198.1969 Q4431.0163,198.1969 4431.61,197.9312 Q4432.2038,197.65 4432.8288,197.0719 L4432.8288,199.7906 Z " fill="#000000"/><text fill="#000000" font-family="sans-serif" font-size="14" lengthAdjust="spacing" textLength="216.2822" x="4443.86" y="198.9967">CurrencyConverterConsoleApp</text><line style="stroke:#000000;stroke-width:1.0;" x1="4415.86" x2="4662.1422" y1="210.15" y2="210.15"/><line style="stroke:#000000;stroke-width:1.0;" x1="4415.86" x2="4662.1422" y1="218.15" y2="218.15"/></g><!--class CamelConfig--><g id="elem_CamelConfig"><rect codeLine="71" fill="#F9E79F" height="64.2969" id="CamelConfig" rx="2.5" ry="2.5" style="stroke:#000000;stroke-width:1.0;" width="442.9307" x="4718.53" y="170"/><ellipse cx="4891.0383" cy="186" fill="#ADD1B2" rx="11" ry="11" style="stroke:#181818;stroke-width:1.0;"/><path d="M4894.0071,191.6406 Q4893.4289,191.9375 4892.7883,192.0781 Q4892.1477,192.2344 4891.4446,192.2344 Q4888.9446,192.2344 4887.6164,190.5938 Q4886.3039,188.9375 4886.3039,185.8125 Q4886.3039,182.6875 4887.6164,181.0313 Q4888.9446,179.375 4891.4446,179.375 Q4892.1477,179.375 4892.7883,179.5313 Q4893.4446,179.6875 4894.0071,179.9844 L4894.0071,182.7031 Q4893.3821,182.125 4892.7883,181.8594 Q4892.1946,181.5781 4891.5696,181.5781 Q4890.2258,181.5781 4889.5383,182.6563 Q4888.8508,183.7188 4888.8508,185.8125 Q4888.8508,187.9063 4889.5383,188.9844 Q4890.2258,190.0469 4891.5696,190.0469 Q4892.1946,190.0469 4892.7883,189.7813 Q4893.3821,189.5 4894.0071,188.9219 L4894.0071,191.6406 Z " fill="#000000"/><text fill="#000000" font-family="sans-serif" font-size="14" lengthAdjust="spacing" textLength="89.4141" x="4911.5383" y="190.8467">CamelConfig</text><line style="stroke:#000000;stroke-width:1.0;" x1="4719.53" x2="5160.4607" y1="202" y2="202"/><line style="stroke:#000000;stroke-width:1.0;" x1="4719.53" x2="5160.4607" y1="210" y2="210"/><ellipse cx="4729.53" cy="223.6484" fill="#84BE84" rx="3" ry="3" style="stroke:#038048;stroke-width:1.0;"/><text fill="#000000" font-family="sans-serif" font-size="14" lengthAdjust="spacing" textLength="416.9307" x="4738.53" y="226.9951">configureCamelContext(CamelContext camelContext): void</text></g><!--class ProducerConfig--><g id="elem_ProducerConfig"><rect codeLine="74" fill="#F9E79F" height="64.2969" id="ProducerConfig" rx="2.5" ry="2.5" style="stroke:#000000;stroke-width:1.0;" width="505.7803" x="5196.11" y="170"/><ellipse cx="5390.9957" cy="186" fill="#ADD1B2" rx="11" ry="11" style="stroke:#181818;stroke-width:1.0;"/><path d="M5393.9645,191.6406 Q5393.3864,191.9375 5392.7457,192.0781 Q5392.1051,192.2344 5391.402,192.2344 Q5388.902,192.2344 5387.5739,190.5938 Q5386.2614,188.9375 5386.2614,185.8125 Q5386.2614,182.6875 5387.5739,181.0313 Q5388.902,179.375 5391.402,179.375 Q5392.1051,179.375 5392.7457,179.5313 Q5393.402,179.6875 5393.9645,179.9844 L5393.9645,182.7031 Q5393.3395,182.125 5392.7457,181.8594 Q5392.152,181.5781 5391.527,181.5781 Q5390.1832,181.5781 5389.4957,182.6563 Q5388.8082,183.7188 5388.8082,185.8125 Q5388.8082,187.9063 5389.4957,188.9844 Q5390.1832,190.0469 5391.527,190.0469 Q5392.152,190.0469 5392.7457,189.7813 Q5393.3395,189.5 5393.9645,188.9219 L5393.9645,191.6406 Z " fill="#000000"/><text fill="#000000" font-family="sans-serif" font-size="14" lengthAdjust="spacing" textLength="107.5088" x="5411.4957" y="190.8467">ProducerConfig</text><line style="stroke:#000000;stroke-width:1.0;" x1="5197.11" x2="5700.8903" y1="202" y2="202"/><line style="stroke:#000000;stroke-width:1.0;" x1="5197.11" x2="5700.8903" y1="210" y2="210"/><ellipse cx="5207.11" cy="223.6484" fill="#84BE84" rx="3" ry="3" style="stroke:#038048;stroke-width:1.0;"/><text fill="#000000" font-family="sans-serif" font-size="14" lengthAdjust="spacing" textLength="479.7803" x="5216.11" y="226.9951">producerTemplate(CamelContext camelContext): ProducerTemplate</text></g><!--class SharedConfig--><g id="elem_SharedConfig"><rect codeLine="77" fill="#F9E79F" height="64.2969" id="SharedConfig" rx="2.5" ry="2.5" style="stroke:#000000;stroke-width:1.0;" width="243.1846" x="5736.41" y="170"/><ellipse cx="5806.4954" cy="186" fill="#ADD1B2" rx="11" ry="11" style="stroke:#181818;stroke-width:1.0;"/><path d="M5809.4642,191.6406 Q5808.8861,191.9375 5808.2454,192.0781 Q5807.6048,192.2344 5806.9017,192.2344 Q5804.4017,192.2344 5803.0736,190.5938 Q5801.7611,188.9375 5801.7611,185.8125 Q5801.7611,182.6875 5803.0736,181.0313 Q5804.4017,179.375 5806.9017,179.375 Q5807.6048,179.375 5808.2454,179.5313 Q5808.9017,179.6875 5809.4642,179.9844 L5809.4642,182.7031 Q5808.8392,182.125 5808.2454,181.8594 Q5807.6517,181.5781 5807.0267,181.5781 Q5805.6829,181.5781 5804.9954,182.6563 Q5804.3079,183.7188 5804.3079,185.8125 Q5804.3079,187.9063 5804.9954,188.9844 Q5805.6829,190.0469 5807.0267,190.0469 Q5807.6517,190.0469 5808.2454,189.7813 Q5808.8392,189.5 5809.4642,188.9219 L5809.4642,191.6406 Z " fill="#000000"/><text fill="#000000" font-family="sans-serif" font-size="14" lengthAdjust="spacing" textLength="94.5137" x="5826.9954" y="190.8467">SharedConfig</text><line style="stroke:#000000;stroke-width:1.0;" x1="5737.41" x2="5978.5946" y1="202" y2="202"/><line style="stroke:#000000;stroke-width:1.0;" x1="5737.41" x2="5978.5946" y1="210" y2="210"/><ellipse cx="5747.41" cy="223.6484" fill="#84BE84" rx="3" ry="3" style="stroke:#038048;stroke-width:1.0;"/><text fill="#000000" font-family="sans-serif" font-size="14" lengthAdjust="spacing" textLength="217.1846" x="5756.41" y="226.9951">camelContext(): CamelContext</text></g><!--class CamelContext--><g id="elem_CamelContext"><rect fill="#F9E79F" height="48" id="CamelContext" rx="2.5" ry="2.5" style="stroke:#000000;stroke-width:1.0;" width="131.5859" x="6060.21" y="360.45"/><ellipse cx="6075.21" cy="376.45" fill="#ADD1B2" rx="11" ry="11" style="stroke:#181818;stroke-width:1.0;"/><path d="M6078.1788,382.0906 Q6077.6006,382.3875 6076.96,382.5281 Q6076.3194,382.6844 6075.6163,382.6844 Q6073.1163,382.6844 6071.7881,381.0438 Q6070.4756,379.3875 6070.4756,376.2625 Q6070.4756,373.1375 6071.7881,371.4813 Q6073.1163,369.825 6075.6163,369.825 Q6076.3194,369.825 6076.96,369.9813 Q6077.6163,370.1375 6078.1788,370.4344 L6078.1788,373.1531 Q6077.5538,372.575 6076.96,372.3094 Q6076.3663,372.0281 6075.7413,372.0281 Q6074.3975,372.0281 6073.71,373.1063 Q6073.0225,374.1688 6073.0225,376.2625 Q6073.0225,378.3563 6073.71,379.4344 Q6074.3975,380.4969 6075.7413,380.4969 Q6076.3663,380.4969 6076.96,380.2313 Q6077.5538,379.95 6078.1788,379.3719 L6078.1788,382.0906 Z " fill="#000000"/><text fill="#000000" font-family="sans-serif" font-size="14" lengthAdjust="spacing" textLength="99.5859" x="6089.21" y="381.2967">CamelContext</text><line style="stroke:#000000;stroke-width:1.0;" x1="6061.21" x2="6190.7959" y1="392.45" y2="392.45"/><line style="stroke:#000000;stroke-width:1.0;" x1="6061.21" x2="6190.7959" y1="400.45" y2="400.45"/></g><!--reverse link RuntimeException to BusinessException--><g id="link_RuntimeException_BusinessException"><path d="M3786.3326,241.4888 C3764.1226,276.0188 3732.34,325.41 3710.05,360.05 " fill="none" id="RuntimeException-backto-BusinessException" style="stroke:#000000;stroke-width:1.0;"/><polygon fill="none" points="3796.07,226.35,3781.2863,238.243,3791.3789,244.7346,3796.07,226.35" style="stroke:#000000;stroke-width:1.0;"/></g><!--reverse link RuntimeException to ResourceNotFoundException--><g id="link_RuntimeException_ResourceNotFoundException"><path d="M3835.8561,241.4509 C3858.2561,275.9809 3890.34,325.41 3912.82,360.05 " fill="none" id="RuntimeException-backto-ResourceNotFoundException" style="stroke:#000000;stroke-width:1.0;"/><polygon fill="none" points="3826.06,226.35,3830.8225,244.7162,3840.8897,238.1855,3826.06,226.35" style="stroke:#000000;stroke-width:1.0;"/></g><!--link CurrencyConversionController to CurrencyConversionService--><g id="link_CurrencyConversionController_CurrencyConversionService"><path codeLine="83" d="M500,234.55 C500,267.55 500,313.13 500,346.1 " fill="none" id="CurrencyConversionController-to-CurrencyConversionService" style="stroke:#000000;stroke-width:1.0;"/><polygon fill="#000000" points="500,352.1,504,343.1,500,347.1,496,343.1,500,352.1" style="stroke:#000000;stroke-width:1.0;"/></g><!--link CurrencyConversionService to CurrencyConversionDTO--><g id="link_CurrencyConversionService_CurrencyConversionDTO"><path codeLine="84" d="M711.76,417.07 C884.05,442.8 1122.2158,478.3736 1307.7358,506.0836 " fill="none" id="CurrencyConversionService-to-CurrencyConversionDTO" style="stroke:#000000;stroke-width:1.0;"/><polygon fill="#000000" points="1313.67,506.97,1305.3596,501.6844,1308.7249,506.2314,1304.1778,509.5966,1313.67,506.97" style="stroke:#000000;stroke-width:1.0;"/></g><!--link CurrencyConversionService to CurrencyConversionRepository--><g id="link_CurrencyConversionService_CurrencyConversionRepository"><path codeLine="85" d="M906.54,389.14 C1332.94,395.71 1973.87,413.92 2214,464.45 C2273.16,476.89 2331.9787,501.1917 2374.2687,520.8417 " fill="none" id="CurrencyConversionService-to-CurrencyConversionRepository" style="stroke:#000000;stroke-width:1.0;"/><polygon fill="#000000" points="2379.71,523.37,2373.2336,515.95,2375.1756,521.2631,2369.8625,523.2051,2379.71,523.37" style="stroke:#000000;stroke-width:1.0;"/></g><!--link CurrencyConversionService to ApiResponse--><g id="link_CurrencyConversionService_ApiResponse"><path codeLine="86" d="M500,416.93 C500,442.69 500,473.28 500,501.05 " fill="none" id="CurrencyConversionService-to-ApiResponse" style="stroke:#000000;stroke-width:1.0;"/><polygon fill="#000000" points="500,507.05,504,498.05,500,502.05,496,498.05,500,507.05" style="stroke:#000000;stroke-width:1.0;"/></g><!--link CurrencyConversionDTO to Currency--><g id="link_CurrencyConversionDTO_Currency"><path codeLine="87" d="M1868.53,588.51 C1996.25,605.06 2148.42,623.33 2286,636.04 C2479.34,653.9 2704.3955,664.6342 2802.8055,668.8342 " fill="none" id="CurrencyConversionDTO-to-Currency" style="stroke:#000000;stroke-width:1.0;"/><polygon fill="#000000" points="2808.8,669.09,2799.9787,664.7099,2803.8045,668.8768,2799.6376,672.7026,2808.8,669.09" style="stroke:#000000;stroke-width:1.0;"/></g><!--link CurrencyConversion to Currency--><g id="link_CurrencyConversion_Currency"><path codeLine="88" d="M2993.42,588.45 C2961.16,607.98 2928.5231,627.7434 2900.9131,644.4534 " fill="none" id="CurrencyConversion-to-Currency" style="stroke:#000000;stroke-width:1.0;"/><polygon fill="#000000" points="2895.78,647.56,2905.5508,646.3221,2900.0576,644.9711,2901.4086,639.478,2895.78,647.56" style="stroke:#000000;stroke-width:1.0;"/></g><!--link CurrencyConversionDomainService to CurrencyConversionRepository--><g id="link_CurrencyConversionDomainService_CurrencyConversionRepository"><path codeLine="89" d="M2741.39,417.04 C2693.65,429.86 2639.8,446.02 2592,464.45 C2548.54,481.2 2506.4494,502.6206 2473.6694,520.4706 " fill="none" id="CurrencyConversionDomainService-to-CurrencyConversionRepository" style="stroke:#000000;stroke-width:1.0;"/><polygon fill="#000000" points="2468.4,523.34,2478.217,522.5488,2472.7912,520.9488,2474.3912,515.523,2468.4,523.34" style="stroke:#000000;stroke-width:1.0;"/></g><!--link CurrencyConversionDomainService to CurrencyConversion--><g id="link_CurrencyConversionDomainService_CurrencyConversion"><path codeLine="90" d="M2910.11,416.93 C2939.66,442.69 2977.0976,475.3369 3008.9476,503.1069 " fill="none" id="CurrencyConversionDomainService-to-CurrencyConversion" style="stroke:#000000;stroke-width:1.0;"/><polygon fill="#000000" points="3013.47,507.05,3009.3151,498.1204,3009.7013,503.7641,3004.0577,504.1503,3013.47,507.05" style="stroke:#000000;stroke-width:1.0;"/></g><!--link CamelConfig to CurrencyConversionService--><g id="link_CamelConfig_CurrencyConversionService"><path codeLine="91" d="M4816.04,234.76 C4772.96,244.29 4724.13,253.5 4679,258.3 C4557.02,271.27 2593.61,262.44 2471,266.3 C1929.23,283.37 1310.7346,323.6101 912.4246,352.2201 " fill="none" id="CamelConfig-to-CurrencyConversionService" style="stroke:#000000;stroke-width:1.0;"/><polygon fill="#000000" points="906.44,352.65,915.7034,355.9949,911.4272,352.2918,915.1303,348.0155,906.44,352.65" style="stroke:#000000;stroke-width:1.0;"/></g><!--link ProducerConfig to CamelContext--><g id="link_ProducerConfig_CamelContext"><path codeLine="92" d="M5567.7,234.76 C5710.67,272.84 5939.9922,333.9056 6054.0422,364.2856 " fill="none" id="ProducerConfig-to-CamelContext" style="stroke:#000000;stroke-width:1.0;"/><polygon fill="#000000" points="6059.84,365.83,6052.1728,359.6482,6055.0085,364.543,6050.1137,367.3786,6059.84,365.83" style="stroke:#000000;stroke-width:1.0;"/></g><!--link SharedConfig to CamelContext--><g id="link_SharedConfig_CamelContext"><path codeLine="93" d="M5904.99,234.76 C5958.28,270.61 6038.9416,324.881 6086.4516,356.841 " fill="none" id="SharedConfig-to-CamelContext" style="stroke:#000000;stroke-width:1.0;"/><polygon fill="#000000" points="6091.43,360.19,6086.1951,351.8476,6087.2813,357.3992,6081.7298,358.4855,6091.43,360.19" style="stroke:#000000;stroke-width:1.0;"/></g><!--SRC=[jLLTRzCm57tFh_360vtOAdX2GsXIbxOWhQnJLYJUa75kMskERQwTiGdjltEJD6sQfacB84znpl7zE3wvFebXBZMmwq5uyocQVhqTVW-dasd4Ner7uylHE3Wf2PDfUBF6BaVlBpVORFHjLa9lyoS8t8FKbYDFc53SEVOxOFHSS_6mG9FgE3JAO3LgWHkC0Gki39Lz7nljYw-RN3amG3I_Tlb5dDbIYWSDbFrTy184bfBp1R1JOPA-Mu9oHlUvjKeAxYMz2yg2HYd0qrMzHUrXYWXQF8T6Fm8weePhvegOFMz4ZlkItYjVc3Cf2ZXV1sAUumByEOjD-aC1umb9uiy-D6GQpgPvWfTAFPzD0iqLB0dfKPnxZr8lLXiFQJtsfgjdggIQgf7GE-iYr3GfbplQR82LHc8T9kAUj9mOmTMGNcSo0VOp1NmUvi2MfhNj7k91eVKHsZZ0HocWIv_xWdQ48Gvl_aY33AoCm5cZtLOv53dJpcKE-SBjny8bvsoO9xdQ45r9R60np90k_MAJSAdxYOb1DGlNgcMxqTfTzjyjTc3l2DOuwGq-bm98xG7dd3ooMtMqPdV5FT2EmvpTO4fBDHXC_eLWcHKQJTcXaDHpvCvZAdoAq8Sd0JRxrRPxkawTpARtg8GPF7dGiMCH_Gnq96kWiebydpTnQ_muksSEsBolIcKM2t9-NMZdJH81kS7vIS4OIqK7kpSEsSePrNfWFhlqSjR0shP0SrclXoUWmXoeJHxwGkAMkAVsUzK54vK57UAZaV7E8Bb34wSYBwwMmAwG6IHMaGrQOz_Lo3jvxfSS8MveerfzvhJAUkEnrtJgAf_LRYcj2rhlwukBg_t3EzW_rfltPTFts3sLNxrzQsMC1yttSJL10wKBtvuHVr7j8G62gaNRrQ_PBITNJtpB9dNq3m00]--></g></svg>