<svg xmlns="http://www.w3.org/2000/svg" xmlns:xlink="http://www.w3.org/1999/xlink" contentStyleType="text/css" height="494px" preserveAspectRatio="none" style="width:1104px;height:494px;background:#FFFFFF;" version="1.1" viewBox="0 0 1104 494" width="1104px" zoomAndPan="magnify"><defs/><g><!--cluster Estrat?gia de Solu??o--><g id="cluster_Estrat&#233;gia de Solu&#231;&#227;o"><path d="M8.5,6 L181.9912,6 A3.75,3.75 0 0 1 184.4912,8.5 L191.4912,28.2969 L1086.5,28.2969 A2.5,2.5 0 0 1 1089,30.7969 L1089,485.39 A2.5,2.5 0 0 1 1086.5,487.89 L8.5,487.89 A2.5,2.5 0 0 1 6,485.39 L6,8.5 A2.5,2.5 0 0 1 8.5,6 " fill="none" style="stroke:#000000;stroke-width:1.5;"/><line style="stroke:#000000;stroke-width:1.5;" x1="6" x2="191.4912" y1="28.2969" y2="28.2969"/><text fill="#000000" font-family="sans-serif" font-size="14" font-weight="bold" lengthAdjust="spacing" textLength="172.4912" x="10" y="20.9951">Estrat&#233;gia de Solu&#231;&#227;o</text></g><!--cluster Microservices--><g id="cluster_Microservices"><rect fill="none" height="238.59" rx="2.5" ry="2.5" style="stroke:#181818;stroke-width:1.0;" width="532" x="525" y="217.3"/><text fill="#000000" font-family="sans-serif" font-size="14" font-weight="bold" lengthAdjust="spacing" textLength="108.459" x="736.7705" y="232.2951">Microservi&#231;os</text></g><!--cluster DevOps--><g id="cluster_DevOps"><rect fill="none" height="273.59" rx="2.5" ry="2.5" style="stroke:#181818;stroke-width:1.0;" width="447" x="38" y="57"/><text fill="#000000" font-family="sans-serif" font-size="14" font-weight="bold" lengthAdjust="spacing" textLength="60.498" x="231.251" y="71.9951">DevOps</text></g><!--entity Convers?o de Moedas--><g id="elem_Convers&#227;o de Moedas"><rect fill="#F9E79F" height="46.2969" rx="2.5" ry="2.5" style="stroke:#000000;stroke-width:1.0;" width="194.7246" x="548.64" y="260.3"/><rect fill="#F9E79F" height="10" style="stroke:#000000;stroke-width:1.0;" width="15" x="723.3646" y="265.3"/><rect fill="#F9E79F" height="2" style="stroke:#000000;stroke-width:1.0;" width="4" x="721.3646" y="267.3"/><rect fill="#F9E79F" height="2" style="stroke:#000000;stroke-width:1.0;" width="4" x="721.3646" y="271.3"/><text fill="#000000" font-family="sans-serif" font-size="14" lengthAdjust="spacing" textLength="154.7246" x="563.64" y="293.2951">Convers&#227;o de Moedas</text></g><!--entity Gerenciamento de Usu?rios--><g id="elem_Gerenciamento de Usu&#225;rios"><rect fill="#F9E79F" height="46.2969" rx="2.5" ry="2.5" style="stroke:#000000;stroke-width:1.0;" width="234.9473" x="778.53" y="260.3"/><rect fill="#F9E79F" height="10" style="stroke:#000000;stroke-width:1.0;" width="15" x="993.4773" y="265.3"/><rect fill="#F9E79F" height="2" style="stroke:#000000;stroke-width:1.0;" width="4" x="991.4773" y="267.3"/><rect fill="#F9E79F" height="2" style="stroke:#000000;stroke-width:1.0;" width="4" x="991.4773" y="271.3"/><text fill="#000000" font-family="sans-serif" font-size="14" lengthAdjust="spacing" textLength="194.9473" x="793.53" y="293.2951">Gerenciamento de Usu&#225;rios</text></g><!--entity Autentica??o--><g id="elem_Autentica&#231;&#227;o"><rect fill="#F9E79F" height="46.2969" rx="2.5" ry="2.5" style="stroke:#000000;stroke-width:1.0;" width="131.9229" x="580.04" y="385.59"/><rect fill="#F9E79F" height="10" style="stroke:#000000;stroke-width:1.0;" width="15" x="691.9629" y="390.59"/><rect fill="#F9E79F" height="2" style="stroke:#000000;stroke-width:1.0;" width="4" x="689.9629" y="392.59"/><rect fill="#F9E79F" height="2" style="stroke:#000000;stroke-width:1.0;" width="4" x="689.9629" y="396.59"/><text fill="#000000" font-family="sans-serif" font-size="14" lengthAdjust="spacing" textLength="91.9229" x="595.04" y="418.5851">Autentica&#231;&#227;o</text></g><!--entity Integra??o Cont?nua--><g id="elem_Integra&#231;&#227;o Cont&#237;nua"><rect fill="#F9E79F" height="46.2969" rx="2.5" ry="2.5" style="stroke:#000000;stroke-width:1.0;" width="182.5361" x="61.73" y="100"/><rect fill="#F9E79F" height="10" style="stroke:#000000;stroke-width:1.0;" width="15" x="224.2661" y="105"/><rect fill="#F9E79F" height="2" style="stroke:#000000;stroke-width:1.0;" width="4" x="222.2661" y="107"/><rect fill="#F9E79F" height="2" style="stroke:#000000;stroke-width:1.0;" width="4" x="222.2661" y="111"/><text fill="#000000" font-family="sans-serif" font-size="14" lengthAdjust="spacing" textLength="142.5361" x="76.73" y="132.9951">Integra&#231;&#227;o Cont&#237;nua</text></g><!--entity Entrega Cont?nua--><g id="elem_Entrega Cont&#237;nua"><rect fill="#F9E79F" height="46.2969" rx="2.5" ry="2.5" style="stroke:#000000;stroke-width:1.0;" width="162.4111" x="278.79" y="100"/><rect fill="#F9E79F" height="10" style="stroke:#000000;stroke-width:1.0;" width="15" x="421.2011" y="105"/><rect fill="#F9E79F" height="2" style="stroke:#000000;stroke-width:1.0;" width="4" x="419.2011" y="107"/><rect fill="#F9E79F" height="2" style="stroke:#000000;stroke-width:1.0;" width="4" x="419.2011" y="111"/><text fill="#000000" font-family="sans-serif" font-size="14" lengthAdjust="spacing" textLength="122.4111" x="293.79" y="132.9951">Entrega Cont&#237;nua</text></g><!--entity Implanta??o Cont?nua--><g id="elem_Implanta&#231;&#227;o Cont&#237;nua"><rect fill="#F9E79F" height="46.2969" rx="2.5" ry="2.5" style="stroke:#000000;stroke-width:1.0;" width="194.2734" x="61.86" y="260.3"/><rect fill="#F9E79F" height="10" style="stroke:#000000;stroke-width:1.0;" width="15" x="236.1334" y="265.3"/><rect fill="#F9E79F" height="2" style="stroke:#000000;stroke-width:1.0;" width="4" x="234.1334" y="267.3"/><rect fill="#F9E79F" height="2" style="stroke:#000000;stroke-width:1.0;" width="4" x="234.1334" y="271.3"/><text fill="#000000" font-family="sans-serif" font-size="14" lengthAdjust="spacing" textLength="154.2734" x="76.86" y="293.2951">Implanta&#231;&#227;o Cont&#237;nua</text></g><!--link Microservices to DevOps--><g id="link_Microservices_DevOps"><path d="M1041.5063,217.2081 C1041.4438,217.0836 1041.3809,216.9593 1041.3176,216.8353 C1040.3041,214.8509 1039.1826,212.9321 1037.9428,211.0993 C1035.4631,207.4338 1032.51,204.1125 1029,201.3 C1013.04,188.51 681.08,197.17 661,193.3 C618.78,185.15 573.5475,168.27 538.495,153.2288 C520.9688,145.7081 505.9875,138.6472 495.2003,133.367 C492.5035,132.047 490.0688,130.8383 487.9221,129.7615 C487.3854,129.4923 486.8667,129.2313 486.3664,128.9789 C486.1162,128.8527 485.8707,128.7287 485.6298,128.6068 C485.5093,128.5459 490.7424,131.1969 490.6243,131.1371 " fill="none" id="Microservices-to-DevOps" style="stroke:#000000;stroke-width:1.0;"/><polygon fill="#000000" points="485.2719,128.4256,491.4929,136.061,489.7322,130.6852,495.1081,128.9245,485.2719,128.4256" style="stroke:#000000;stroke-width:1.0;"/><text fill="#000000" font-family="sans-serif" font-size="13" lengthAdjust="spacing" textLength="114.3911" x="662" y="189.3669">Automa&#231;&#227;o CI/CD</text></g><!--link DevOps to Microservices--><g id="link_DevOps_Microservices"><path d="M485.0609,125.5845 C485.4959,125.6618 485.9474,125.742 486.4152,125.8251 C488.2865,126.1575 490.4184,126.5358 492.7941,126.957 C502.297,128.6414 515.7014,131.0103 531.9378,133.8606 C564.4106,139.5613 608.2113,147.1875 654.7825,155.115 C747.925,170.97 852.15,188.03 899,193.3 C913.38,194.91 1017.89,192.03 1029,201.3 C1032.4538,204.1813 1035.3644,207.5545 1037.8128,211.2584 C1039.0369,213.1104 1037.4523,209.6834 1038.4555,211.6805 " fill="none" id="DevOps-to-Microservices" style="stroke:#000000;stroke-width:1.0;"/><polygon fill="#000000" points="1041.1487,217.0421,1040.6833,207.2042,1038.9044,212.5741,1033.5345,210.7952,1041.1487,217.0421" style="stroke:#000000;stroke-width:1.0;"/><text fill="#000000" font-family="sans-serif" font-size="13" lengthAdjust="spacing" textLength="196.2949" x="900" y="189.3669">Implanta&#231;&#227;o e Monitoramento</text></g><!--SRC=[RP31IiD048RlUOfjFHVr9Er1IDEa16q3jGL1H9PaZ4kJdJ2xgGVfmuY7ui6do8kvoQQchPtJCl__ptmxlGHUXGGsThsxwI9QpISlNdGVBTX5u0T3Ft1whS6BvaitdFkBFttetmmxVUa_BlVILLEEezP25fnupcBC2vGWDVjmcAanZzSfOIaJ3pEaq-dMWvG0MNq_iku7ABNjTZiRmIN2z_z-EsVv9kAr1ANOjRDrdC80y1HOtrUQkAw-Ky5P0km1ixBQLL_ORqa9OirbcXdhJCI42cWZgXsgFkEATQqOL9kewyb3kG5IPb0zTOQGSFNSoLCWaB7WkJb9urYfileaWOScjzH65Z5lWAomFOMQm2OgB8nz7bA4KaDADiyCagv-PCaFLlXI4wJyh1RcHSQbFf_UraSy_ltWjYKOCKEE-JuONdeJfsKR6DDHQiIErzItaa8ZsTFy0W00]--></g></svg>