<svg xmlns="http://www.w3.org/2000/svg" xmlns:xlink="http://www.w3.org/1999/xlink" contentStyleType="text/css" height="429px" preserveAspectRatio="none" style="width:346px;height:429px;background:#FFFFFF;" version="1.1" viewBox="0 0 346 429" width="346px" zoomAndPan="magnify"><defs/><g><!--cluster Blocos de Constru??o--><g id="cluster_Blocos de Constru&#231;&#227;o"><path d="M8.5,6 L179.2227,6 A3.75,3.75 0 0 1 181.7227,8.5 L188.7227,28.2969 L336.5,28.2969 A2.5,2.5 0 0 1 339,30.7969 L339,419.69 A2.5,2.5 0 0 1 336.5,422.19 L8.5,422.19 A2.5,2.5 0 0 1 6,419.69 L6,8.5 A2.5,2.5 0 0 1 8.5,6 " fill="none" style="stroke:#000000;stroke-width:1.5;"/><line style="stroke:#000000;stroke-width:1.5;" x1="6" x2="188.7227" y1="28.2969" y2="28.2969"/><text fill="#000000" font-family="sans-serif" font-size="14" font-weight="bold" lengthAdjust="spacing" textLength="169.7227" x="10" y="20.9951">Blocos de Constru&#231;&#227;o</text></g><!--entity Controladores--><g id="elem_Controladores"><rect fill="#F9E79F" height="46.2969" rx="2.5" ry="2.5" style="stroke:#000000;stroke-width:1.0;" width="138.6084" x="79.7" y="41"/><rect fill="#F9E79F" height="10" style="stroke:#000000;stroke-width:1.0;" width="15" x="198.3084" y="46"/><rect fill="#F9E79F" height="2" style="stroke:#000000;stroke-width:1.0;" width="4" x="196.3084" y="48"/><rect fill="#F9E79F" height="2" style="stroke:#000000;stroke-width:1.0;" width="4" x="196.3084" y="52"/><text fill="#000000" font-family="sans-serif" font-size="14" lengthAdjust="spacing" textLength="98.6084" x="94.7" y="73.9951">Controladores</text></g><!--entity Servi?os--><g id="elem_Servi&#231;os"><rect fill="#F9E79F" height="46.2969" rx="2.5" ry="2.5" style="stroke:#000000;stroke-width:1.0;" width="98.9873" x="67.51" y="147.3"/><rect fill="#F9E79F" height="10" style="stroke:#000000;stroke-width:1.0;" width="15" x="146.4973" y="152.3"/><rect fill="#F9E79F" height="2" style="stroke:#000000;stroke-width:1.0;" width="4" x="144.4973" y="154.3"/><rect fill="#F9E79F" height="2" style="stroke:#000000;stroke-width:1.0;" width="4" x="144.4973" y="158.3"/><text fill="#000000" font-family="sans-serif" font-size="14" lengthAdjust="spacing" textLength="58.9873" x="82.51" y="180.2951">Servi&#231;os</text></g><!--entity Reposit?rios--><g id="elem_Reposit&#243;rios"><rect fill="#F9E79F" height="46.2969" rx="2.5" ry="2.5" style="stroke:#000000;stroke-width:1.0;" width="126.5361" x="21.73" y="253.6"/><rect fill="#F9E79F" height="10" style="stroke:#000000;stroke-width:1.0;" width="15" x="128.2661" y="258.6"/><rect fill="#F9E79F" height="2" style="stroke:#000000;stroke-width:1.0;" width="4" x="126.2661" y="260.6"/><rect fill="#F9E79F" height="2" style="stroke:#000000;stroke-width:1.0;" width="4" x="126.2661" y="264.6"/><text fill="#000000" font-family="sans-serif" font-size="14" lengthAdjust="spacing" textLength="86.5361" x="36.73" y="286.5951">Reposit&#243;rios</text></g><!--entity Entidades--><g id="elem_Entidades"><rect fill="#F9E79F" height="46.2969" rx="2.5" ry="2.5" style="stroke:#000000;stroke-width:1.0;" width="109.3574" x="30.32" y="359.89"/><rect fill="#F9E79F" height="10" style="stroke:#000000;stroke-width:1.0;" width="15" x="119.6774" y="364.89"/><rect fill="#F9E79F" height="2" style="stroke:#000000;stroke-width:1.0;" width="4" x="117.6774" y="366.89"/><rect fill="#F9E79F" height="2" style="stroke:#000000;stroke-width:1.0;" width="4" x="117.6774" y="370.89"/><text fill="#000000" font-family="sans-serif" font-size="14" lengthAdjust="spacing" textLength="69.3574" x="45.32" y="392.8851">Entidades</text></g><!--entity DTOs--><g id="elem_DTOs"><rect fill="#F9E79F" height="46.2969" rx="2.5" ry="2.5" style="stroke:#000000;stroke-width:1.0;" width="77.6455" x="201.18" y="147.3"/><rect fill="#F9E79F" height="10" style="stroke:#000000;stroke-width:1.0;" width="15" x="258.8255" y="152.3"/><rect fill="#F9E79F" height="2" style="stroke:#000000;stroke-width:1.0;" width="4" x="256.8255" y="154.3"/><rect fill="#F9E79F" height="2" style="stroke:#000000;stroke-width:1.0;" width="4" x="256.8255" y="158.3"/><text fill="#000000" font-family="sans-serif" font-size="14" lengthAdjust="spacing" textLength="37.6455" x="216.18" y="180.2951">DTOs</text></g><!--entity Configura??es--><g id="elem_Configura&#231;&#245;es"><rect fill="#F9E79F" height="46.2969" rx="2.5" ry="2.5" style="stroke:#000000;stroke-width:1.0;" width="140.2969" x="182.85" y="253.6"/><rect fill="#F9E79F" height="10" style="stroke:#000000;stroke-width:1.0;" width="15" x="303.1469" y="258.6"/><rect fill="#F9E79F" height="2" style="stroke:#000000;stroke-width:1.0;" width="4" x="301.1469" y="260.6"/><rect fill="#F9E79F" height="2" style="stroke:#000000;stroke-width:1.0;" width="4" x="301.1469" y="264.6"/><text fill="#000000" font-family="sans-serif" font-size="14" lengthAdjust="spacing" textLength="100.2969" x="197.85" y="286.5951">Configura&#231;&#245;es</text></g><!--link Controladores to Servi?os--><g id="link_Controladores_Servi&#231;os"><path d="M142.06,87.78 C136.69,105.28 131.049,123.6436 125.689,141.1236 " fill="none" id="Controladores-to-Servi&#231;os" style="stroke:#000000;stroke-width:1.0;"/><polygon fill="#000000" points="123.93,146.86,130.3927,139.4281,125.3958,142.0797,122.7442,137.0828,123.93,146.86" style="stroke:#000000;stroke-width:1.0;"/></g><!--link Servi?os to Reposit?rios--><g id="link_Servi&#231;os_Reposit&#243;rios"><path d="M110.06,194.08 C104.69,211.57 99.049,229.9436 93.689,247.4236 " fill="none" id="Servi&#231;os-to-Reposit&#243;rios" style="stroke:#000000;stroke-width:1.0;"/><polygon fill="#000000" points="91.93,253.16,98.3927,245.7281,93.3958,248.3797,90.7442,243.3828,91.93,253.16" style="stroke:#000000;stroke-width:1.0;"/></g><!--link Reposit?rios to Entidades--><g id="link_Reposit&#243;rios_Entidades"><path d="M85,300.38 C85,317.87 85,335.97 85,353.45 " fill="none" id="Reposit&#243;rios-to-Entidades" style="stroke:#000000;stroke-width:1.0;"/><polygon fill="#000000" points="85,359.45,89,350.45,85,354.45,81,350.45,85,359.45" style="stroke:#000000;stroke-width:1.0;"/></g><!--link Controladores to DTOs--><g id="link_Controladores_DTOs"><path d="M168.75,87.78 C184.01,105.28 201.0956,124.8588 216.3456,142.3388 " fill="none" id="Controladores-to-DTOs" style="stroke:#000000;stroke-width:1.0;"/><polygon fill="#000000" points="220.29,146.86,217.3875,137.4485,217.003,143.0923,211.3592,142.7078,220.29,146.86" style="stroke:#000000;stroke-width:1.0;"/></g><!--link Servi?os to Configura??es--><g id="link_Servi&#231;os_Configura&#231;&#245;es"><path d="M146.51,194.08 C169.32,211.57 195.9884,232.0294 218.7884,249.5094 " fill="none" id="Servi&#231;os-to-Configura&#231;&#245;es" style="stroke:#000000;stroke-width:1.0;"/><polygon fill="#000000" points="223.55,253.16,218.8413,244.5097,219.582,250.1178,213.9738,250.8585,223.55,253.16" style="stroke:#000000;stroke-width:1.0;"/></g><!--SRC=[RKv1JiCm4Bpx5MuvLu9JbGjIapeSMZLI218IGiYAtM0bzKPh1mw8rt3e0n0loCTmQvAcANlQdPcTcOcGMwKb3HVHwYvD7ZRBboXP9oczYbaSi9XCEi4wYLOz5x1vSE8ozfXrrFLn236bqZL7lgCvx6hGKblwGQYRaETbWT1e4K45E7JsFA2GwBdExe37eAr7Jtb7Oe48xvTwxvEzghpKqXXwGpu9gLquBoITXXNaOAYGD09jB3Rjlls2wL_79mTQX8eBG6cUFNOlyKsrU-ZkLDPWb6s_KVKOqrO9BlgVPPPqgxFSgg91xf9-3W9NPvH3PxFRivp1xhbHvkZsca67V_rzfmlhSRzV]--></g></svg>